# This file uses centimeters as units for non-parametric coordinates.

mtllib alacenaFlotante.mtl
g default
v -9.340681 5.701801 4.035260
v -9.868868 5.701801 3.970860
v -9.868868 3.812350 3.970860
v -9.340681 3.812350 4.035260
v -9.856958 5.701801 1.907371
v -9.328771 5.701801 1.971772
v -9.328771 3.812350 1.971772
v -9.856958 3.812350 1.907371
v -9.868868 3.642600 3.970860
v -9.867379 3.642600 3.712927
v -9.339193 3.642600 3.777327
v -9.340681 3.642600 4.035260
v -9.867379 5.701801 3.712927
v -9.867379 3.812350 3.712927
v -9.340681 5.871556 4.035260
v -9.339193 5.871556 3.777327
v -9.867379 5.871556 3.712927
v -9.868868 5.871556 3.970860
v -9.339193 3.812350 3.777327
v -9.339193 5.701801 3.777327
v -9.857636 3.642600 2.024724
v -9.329448 3.642600 2.089125
v -9.842543 3.812350 2.899264
v -9.842543 5.701801 2.899264
v -9.842221 5.701801 2.843295
v -9.842221 3.812350 2.843295
v -9.329448 5.871556 2.089125
v -9.857636 5.871556 2.024724
v -9.354604 5.701801 2.958757
v -9.354604 3.812350 2.958757
v -9.354281 3.812350 2.902788
v -9.354281 5.701801 2.902788
v -9.856958 3.642600 1.907371
v -9.328771 3.642600 1.971772
v -9.857636 3.812350 2.024724
v -9.857636 5.701801 2.024724
v -9.328771 5.871556 1.971772
v -9.856958 5.871556 1.907371
v -9.329448 5.701801 2.089125
v -9.329448 3.812350 2.089125
v -9.847254 5.701801 3.715381
v -9.847254 3.812350 3.715381
v -9.837510 5.701801 2.027178
v -9.837510 3.812350 2.027178
v -9.359314 3.812350 3.774874
v -9.359314 5.701801 3.774874
v -9.349570 3.812350 2.086671
v -9.349570 5.701801 2.086671
v -9.603285 5.701801 3.745127
v -9.603285 3.812350 3.745127
v -9.598575 5.701801 2.929010
v -9.598575 3.812350 2.929010
v -9.593541 3.812350 2.056924
v -9.593541 5.701801 2.056924
v -9.598252 3.812350 2.873042
v -9.598252 5.701801 2.873042
vt 1.000000 0.923800
vt 0.000000 0.923800
vt 0.000000 0.076200
vt 1.000000 0.076200
vt 1.000000 0.000000
vt 1.000000 0.125000
vt 0.000000 0.125000
vt 0.000000 0.000000
vt 0.923800 0.000000
vt 0.923800 0.125000
vt 0.076200 0.125000
vt 0.076200 0.000000
vt 1.000000 0.943100
vt 0.000000 0.943100
vt 0.076200 0.520500
vt 0.923800 0.520500
vt 0.923800 0.547600
vt 0.076200 0.547600
vt 1.000000 1.000000
vt 0.000000 1.000000
vt 0.076200 1.000000
vt 0.076200 0.943100
vt 0.923800 0.943100
vt 0.923800 1.000000
vt 1.000000 0.923800
vt 0.000000 0.923800
vt 0.000000 0.076200
vt 1.000000 0.076200
vt 1.000000 0.000000
vt 1.000000 0.125000
vt 0.000000 0.125000
vt 0.000000 0.000000
vt 0.923800 0.000000
vt 0.923800 0.125000
vt 0.076200 0.125000
vt 0.076200 0.000000
vt 1.000000 0.943100
vt 0.000000 0.943100
vt 0.000000 0.125000
vt 1.000000 0.125000
vt 0.076200 0.520500
vt 0.923800 0.520500
vt 0.923800 0.547600
vt 0.076200 0.547600
vt 1.000000 1.000000
vt 0.000000 1.000000
vt 0.000000 0.943100
vt 1.000000 0.943100
vt 0.076200 1.000000
vt 0.076200 0.943100
vt 0.923800 0.943100
vt 0.923800 1.000000
vt 1.000000 1.000000
vt 0.000000 1.000000
vt 0.000000 0.000000
vt 1.000000 0.000000
vt 1.000000 1.000000
vt 0.000000 1.000000
vt 0.000000 0.923800
vt 1.000000 0.923800
vt 0.000000 0.000000
vt 1.000000 0.000000
vt 1.000000 0.076200
vt 0.000000 0.076200
vt 1.000000 0.000000
vt 1.000000 0.125000
vt 0.000000 0.125000
vt 0.000000 0.000000
vt 1.000000 0.000000
vt 1.000000 0.125000
vt 0.923800 0.125000
vt 0.923800 0.000000
vt 0.000000 0.125000
vt 0.000000 0.000000
vt 0.076200 0.000000
vt 0.076200 0.125000
vt 0.000000 0.943100
vt 0.000000 0.125000
vt 1.000000 0.125000
vt 1.000000 0.943100
vt 0.000000 0.943100
vt 0.000000 0.125000
vt 0.076200 0.125000
vt 0.076200 0.943100
vt 1.000000 0.125000
vt 1.000000 0.943100
vt 0.923800 0.943100
vt 0.923800 0.125000
vt 0.000000 1.000000
vt 0.000000 0.943100
vt 1.000000 0.943100
vt 1.000000 1.000000
vt 0.000000 1.000000
vt 0.000000 0.943100
vt 0.076200 0.943100
vt 0.076200 1.000000
vt 1.000000 0.943100
vt 1.000000 1.000000
vt 0.923800 1.000000
vt 0.923800 0.943100
vt 0.923800 0.125000
vt 0.076200 0.125000
vt 0.923800 0.943100
vt 0.923800 0.125000
vt 0.076200 0.943100
vt 0.923800 0.943100
vt 0.076200 0.125000
vt 0.076200 0.943100
vt 0.076200 0.125000
vt 0.923800 0.125000
vt 0.923800 0.125000
vt 0.076200 0.125000
vt 0.923800 0.125000
vt 0.923800 0.943100
vt 0.923800 0.943100
vt 0.923800 0.547600
vt 0.923800 0.125000
vt 0.923800 0.547600
vt 0.923800 0.520500
vt 0.923800 0.125000
vt 0.923800 0.943100
vt 0.076200 0.943100
vt 0.076200 0.943100
vt 0.923800 0.943100
vt 0.076200 0.943100
vt 0.076200 0.125000
vt 0.076200 0.125000
vt 0.076200 0.520500
vt 0.076200 0.943100
vt 0.076200 0.520500
vt 0.076200 0.547600
vt 0.076200 0.943100
vt 0.076200 0.125000
vt 0.923800 0.125000
vt 0.923800 0.125000
vt 0.076200 0.125000
vt 0.923800 0.125000
vt 0.923800 0.520500
vt 0.923800 0.125000
vt 0.076200 0.520500
vt 0.923800 0.520500
vt 0.076200 0.125000
vt 0.076200 0.125000
vt 0.076200 0.520500
vt 0.923800 0.943100
vt 0.076200 0.943100
vt 0.076200 0.943100
vt 0.923800 0.943100
vt 0.076200 0.943100
vt 0.076200 0.547600
vt 0.076200 0.943100
vt 0.923800 0.547600
vt 0.076200 0.547600
vt 0.923800 0.943100
vt 0.923800 0.943100
vt 0.923800 0.547600
vt 0.076200 0.125000
vt 0.923800 0.125000
vt 0.923800 0.125000
vt 0.076200 0.125000
vt 0.923800 0.125000
vt 0.923800 0.520500
vt 0.923800 0.520500
vt 0.923800 0.125000
vt 0.923800 0.520500
vt 0.076200 0.520500
vt 0.076200 0.520500
vt 0.923800 0.520500
vt 0.076200 0.520500
vt 0.076200 0.125000
vt 0.076200 0.125000
vt 0.076200 0.520500
vt 0.923800 0.943100
vt 0.076200 0.943100
vt 0.076200 0.943100
vt 0.923800 0.943100
vt 0.076200 0.943100
vt 0.076200 0.547600
vt 0.076200 0.547600
vt 0.076200 0.943100
vt 0.076200 0.547600
vt 0.923800 0.547600
vt 0.923800 0.547600
vt 0.076200 0.547600
vt 0.923800 0.547600
vt 0.923800 0.943100
vt 0.923800 0.943100
vt 0.923800 0.547600
vn -0.121030 -0.000000 0.992649
vn -0.121030 -0.000000 0.992649
vn -0.121030 -0.000000 0.992649
vn -0.121030 -0.000000 0.992649
vn 0.121031 0.000000 -0.992649
vn 0.121031 0.000000 -0.992649
vn 0.121031 0.000000 -0.992649
vn 0.121031 0.000000 -0.992649
vn -0.000000 -1.000000 -0.000000
vn -0.000000 -1.000000 -0.000000
vn -0.000000 -1.000000 -0.000000
vn -0.000000 -1.000000 -0.000000
vn -0.999983 0.000000 -0.005772
vn -0.999983 0.000000 -0.005771
vn -0.999983 0.000000 -0.005772
vn -0.999983 0.000000 -0.005771
vn -0.000000 1.000000 -0.000000
vn 0.000000 1.000000 0.000000
vn -0.000000 1.000000 -0.000000
vn 0.000000 1.000000 0.000000
vn 0.999983 -0.000000 0.005771
vn 0.999983 -0.000000 0.005772
vn 0.999983 -0.000000 0.005771
vn 0.999983 -0.000000 0.005772
vn -0.000000 -1.000000 0.000000
vn -0.000000 -1.000000 -0.000000
vn -0.999983 0.000000 -0.005771
vn -0.999983 0.000000 -0.005742
vn -0.999983 0.000000 -0.005770
vn -0.999983 0.000000 -0.005741
vn -0.000000 1.000000 -0.000000
vn -0.000000 1.000000 -0.000000
vn 0.999983 -0.000000 0.005771
vn 0.999983 -0.000000 0.005771
vn 0.999983 -0.000000 0.005771
vn 0.999983 -0.000000 0.005771
vn -0.000000 -1.000000 0.000000
vn -0.000000 -1.000000 0.000000
vn -0.999983 0.000000 -0.005782
vn -0.999983 0.000000 -0.005776
vn -0.999983 0.000000 -0.005777
vn -0.999983 0.000000 -0.005773
vn -0.000000 1.000000 -0.000000
vn 0.000000 1.000000 0.000000
vn 0.999983 -0.000000 0.005769
vn 0.999983 -0.000000 0.005771
vn 0.999983 -0.000000 0.005769
vn 0.999983 -0.000000 0.005770
vn -0.121030 -0.000000 0.992649
vn -0.121030 -0.000000 0.992649
vn -0.121030 -0.000000 0.992649
vn -0.121030 -0.000000 0.992649
vn 0.121031 0.000000 -0.992649
vn 0.121031 0.000000 -0.992649
vn 0.121031 0.000000 -0.992649
vn 0.121031 0.000000 -0.992649
vn -0.999983 0.000000 -0.005773
vn -0.999983 0.000000 -0.005771
vn -0.999983 0.000000 -0.005771
vn -0.999983 0.000000 -0.005772
vn 0.999983 -0.000000 0.005770
vn 0.999983 -0.000000 0.005772
vn 0.999983 -0.000000 0.005772
vn 0.999983 -0.000000 0.005771
vn -0.999983 0.000000 -0.005771
vn -0.999983 0.000000 -0.005771
vn 0.999983 -0.000000 0.005772
vn 0.999983 -0.000000 0.005772
vn -0.999983 0.000000 -0.005784
vn -0.999983 0.000000 -0.005779
vn 0.999983 -0.000000 0.005770
vn 0.999983 -0.000000 0.005769
vn 0.121043 0.000000 -0.992647
vn 0.121039 0.000000 -0.992648
vn 0.121043 0.000000 -0.992647
vn 0.121039 0.000000 -0.992648
vn -0.000000 -1.000000 0.000000
vn 0.000006 -1.000000 0.000000
vn 0.000000 -1.000000 0.000000
vn 0.000006 -1.000000 0.000000
vn -0.000000 -1.000000 0.000000
vn -0.000000 -1.000000 -0.000000
vn -0.000002 -1.000000 -0.000000
vn -0.000002 -1.000000 -0.000000
vn -0.121030 -0.000000 0.992649
vn -0.121026 -0.000000 0.992649
vn -0.121030 -0.000000 0.992649
vn -0.121026 -0.000000 0.992649
vn -0.000012 1.000000 -0.000000
vn -0.000000 1.000000 -0.000000
vn -0.000011 1.000000 -0.000000
vn 0.000000 1.000000 -0.000000
vn 0.000000 1.000000 -0.000000
vn 0.000002 1.000000 0.000000
vn 0.000016 1.000000 0.000000
vn 0.000016 1.000000 0.000000
vn 0.121034 0.000000 -0.992648
vn 0.121031 0.000000 -0.992649
vn 0.121034 0.000000 -0.992648
vn 0.121031 0.000000 -0.992649
vn 0.000000 1.000000 -0.000000
vn 0.000000 1.000000 -0.000000
vn 0.000000 1.000000 -0.000000
vn 0.000000 1.000000 -0.000000
vn 0.000000 1.000000 -0.000000
vn 0.000000 1.000000 0.000000
vn 0.000002 1.000000 0.000000
vn 0.000002 1.000000 0.000000
vn -0.121025 -0.000000 0.992649
vn -0.121033 -0.000000 0.992648
vn -0.121025 -0.000000 0.992649
vn -0.121033 -0.000000 0.992648
vn -0.000003 -1.000000 -0.000000
vn 0.000006 -1.000000 0.000000
vn -0.000003 -1.000000 -0.000000
vn 0.000006 -1.000000 0.000000
vn -0.000000 -1.000000 0.000000
vn -0.000000 -1.000000 -0.000000
vn -0.000003 -1.000000 -0.000000
vn -0.000003 -1.000000 -0.000000
vn 0.121031 0.000000 -0.992649
vn 0.121030 0.000000 -0.992649
vn 0.121031 0.000000 -0.992649
vn 0.121030 0.000000 -0.992649
vn -0.000000 -1.000000 0.000000
vn -0.000000 -1.000000 0.000000
vn -0.000000 -1.000000 0.000000
vn -0.000000 -1.000000 0.000000
vn -0.121031 -0.000000 0.992649
vn -0.121031 -0.000000 0.992649
vn -0.121031 -0.000000 0.992649
vn -0.121031 -0.000000 0.992649
vn 0.000001 1.000000 0.000000
vn 0.000000 1.000000 0.000000
vn 0.000001 1.000000 0.000000
vn 0.000000 1.000000 -0.000000
vn -0.121030 -0.000000 0.992649
vn -0.121030 -0.000000 0.992649
vn -0.121030 -0.000000 0.992649
vn -0.121031 -0.000000 0.992649
vn 0.000000 1.000000 0.000000
vn -0.000002 1.000000 -0.000000
vn -0.000000 1.000000 -0.000000
vn -0.000002 1.000000 -0.000000
vn 0.121031 0.000000 -0.992649
vn 0.121031 0.000000 -0.992649
vn 0.121031 0.000000 -0.992649
vn 0.121031 0.000000 -0.992649
vn -0.000000 -1.000000 -0.000000
vn -0.000000 -1.000000 -0.000000
vn 0.000000 -1.000000 0.000000
vn 0.000000 -1.000000 0.000000
vn 0.121031 0.000000 -0.992649
vn 0.121031 0.000000 -0.992649
vn 0.121031 0.000000 -0.992649
vn 0.121031 0.000000 -0.992649
vn -0.000000 1.000000 -0.000000
vn -0.000000 1.000000 -0.000000
vn -0.000000 1.000000 -0.000000
vn 0.000000 1.000000 -0.000000
vn -0.121031 -0.000000 0.992649
vn -0.121031 -0.000000 0.992649
vn -0.121031 -0.000000 0.992649
vn -0.121031 -0.000000 0.992649
vn -0.000000 -1.000000 0.000000
vn 0.000000 -1.000000 0.000000
vn 0.000000 -1.000000 0.000000
vn 0.000000 -1.000000 0.000000
vn -0.121033 -0.000000 0.992649
vn -0.121033 -0.000000 0.992649
vn -0.121033 -0.000000 0.992649
vn -0.121033 -0.000000 0.992649
vn 0.000000 -1.000000 0.000000
vn 0.000000 -1.000000 0.000000
vn 0.000000 -1.000000 0.000000
vn 0.000000 -1.000000 0.000000
vn 0.121031 0.000000 -0.992649
vn 0.121031 0.000000 -0.992649
vn 0.121031 0.000000 -0.992649
vn 0.121031 0.000000 -0.992649
vn 0.000002 1.000000 0.000000
vn 0.000000 1.000000 0.000000
vn 0.000001 1.000000 0.000000
vn 0.000000 1.000000 -0.000000
s 1
g Moda_Collection3:G_Moda_CoffeeTable group23
usemtl pasted__lambert2SG2
f 1/1/1 2/2/2 4/4/3
f 4/4/3 2/2/2 3/3/4
s 2
f 5/25/5 6/26/6 8/28/7
f 8/28/7 6/26/6 7/27/8
s 3
f 10/6/9 11/7/10 9/5/11
f 9/5/11 11/7/10 12/8/12
s 4
f 2/9/13 13/10/14 3/12/15
f 3/12/15 13/10/14 14/11/16
s 5
f 15/29/17 16/30/18 18/32/19
f 18/32/19 16/30/18 17/31/20
s 6
f 4/33/21 19/34/22 1/36/23
f 1/36/23 19/34/22 20/35/24
s 3
f 21/13/25 22/14/26 10/6/9
f 10/6/9 22/14/26 11/7/10
s 8
f 23/15/27 24/16/28 26/18/29
f 26/18/29 24/16/28 25/17/30
s 5
f 28/38/31 17/39/20 27/37/32
f 27/37/32 17/39/20 16/40/18
s 9
f 29/41/33 30/42/34 32/44/35
f 32/44/35 30/42/34 31/43/36
s 3
f 33/19/37 34/20/38 21/13/25
f 21/13/25 34/20/38 22/14/26
s 4
f 8/21/39 35/22/40 5/24/41
f 5/24/41 35/22/40 36/23/42
s 5
f 38/46/43 28/47/31 37/45/44
f 37/45/44 28/47/31 27/48/32
s 6
f 6/49/45 39/50/46 7/52/47
f 7/52/47 39/50/46 40/51/48
s 1
f 15/53/49 18/54/50 1/1/1
f 1/1/1 18/54/50 2/2/2
f 9/55/51 12/56/52 3/3/4
f 3/3/4 12/56/52 4/4/3
s 2
f 38/57/53 37/58/54 5/60/5
f 5/60/5 37/58/54 6/59/6
f 34/61/55 33/62/56 7/64/8
f 7/64/8 33/62/56 8/63/7
s 4
f 18/65/57 17/66/58 2/9/13
f 2/9/13 17/66/58 13/10/14
f 10/67/59 9/68/60 14/11/16
f 14/11/16 9/68/60 3/12/15
s 6
f 12/69/61 11/70/62 4/72/21
f 4/72/21 11/70/62 19/71/22
f 16/73/63 15/74/64 20/76/24
f 20/76/24 15/74/64 1/75/23
s 4
f 21/77/65 10/78/59 35/22/40
f 35/22/40 10/78/59 14/11/16
f 17/79/58 28/80/66 13/10/14
f 13/10/14 28/80/66 36/23/42
s 6
f 27/81/67 16/82/63 39/84/46
f 39/84/46 16/82/63 20/83/24
f 11/85/62 22/86/68 19/88/22
f 19/88/22 22/86/68 40/87/48
s 4
f 33/89/69 21/90/65 8/21/39
f 8/21/39 21/90/65 35/22/40
f 28/91/66 38/92/70 36/23/42
f 36/23/42 38/92/70 5/24/41
s 6
f 37/93/71 27/94/67 6/96/45
f 6/96/45 27/94/67 39/95/46
f 22/97/68 34/98/72 40/100/48
f 40/100/48 34/98/72 7/99/47
s 12
f 14/11/73 13/10/74 42/102/75
f 42/102/75 13/10/74 41/101/76
s 13
f 13/10/77 36/23/78 25/17/79
f 25/17/79 36/23/78 43/103/80
s 14
f 25/17/81 24/16/82 13/10/83
f 13/10/83 24/16/82 41/104/84
s 15
f 36/23/85 35/22/86 43/106/87
f 43/106/87 35/22/86 44/105/88
s 16
f 35/22/89 14/11/90 23/15/91
f 23/15/91 14/11/90 42/107/92
s 17
f 23/15/93 26/18/94 35/22/95
f 35/22/95 26/18/94 44/108/96
s 18
f 20/109/97 19/110/98 46/112/99
f 46/112/99 19/110/98 45/111/100
s 19
f 19/113/101 40/114/102 31/116/103
f 31/116/103 40/114/102 47/115/104
s 20
f 31/118/105 30/119/106 19/117/107
f 19/117/107 30/119/106 45/120/108
s 21
f 40/121/109 39/122/110 47/124/111
f 47/124/111 39/122/110 48/123/112
s 22
f 39/125/113 20/126/114 29/128/115
f 29/128/115 20/126/114 46/127/116
s 23
f 29/130/117 32/131/118 39/129/119
f 39/129/119 32/131/118 48/132/120
s 24
f 42/133/121 41/134/122 50/136/123
f 50/136/123 41/134/122 49/135/124
s 25
f 24/16/125 51/138/126 41/137/127
f 41/137/127 51/138/126 49/139/128
s 26
f 24/16/129 23/15/130 51/141/131
f 51/141/131 23/15/130 52/140/132
s 27
f 23/15/133 42/142/134 52/144/135
f 52/144/135 42/142/134 50/143/136
s 28
f 43/145/137 44/146/138 54/148/139
f 54/148/139 44/146/138 53/147/140
s 29
f 44/149/141 26/18/142 53/151/143
f 53/151/143 26/18/142 55/150/144
s 30
f 26/18/145 25/17/146 55/153/147
f 55/153/147 25/17/146 56/152/148
s 31
f 43/154/149 54/155/150 25/17/151
f 25/17/151 54/155/150 56/156/152
s 32
f 46/157/153 45/158/154 49/160/155
f 49/160/155 45/158/154 50/159/156
s 33
f 45/161/157 30/162/158 50/164/159
f 50/164/159 30/162/158 52/163/160
s 34
f 30/165/161 29/166/162 52/168/163
f 52/168/163 29/166/162 51/167/164
s 35
f 46/170/165 49/171/166 29/169/167
f 29/169/167 49/171/166 51/172/168
s 36
f 47/173/169 48/174/170 53/176/171
f 53/176/171 48/174/170 54/175/172
s 37
f 32/178/173 56/179/174 48/177/175
f 48/177/175 56/179/174 54/180/176
s 38
f 32/181/177 31/182/178 56/184/179
f 56/184/179 31/182/178 55/183/180
s 39
f 31/185/181 47/186/182 55/188/183
f 55/188/183 47/186/182 53/187/184
