# This file uses centimeters as units for non-parametric coordinates.

mtllib AlaPuerta2.mtl
g default
v -9.330935 3.852555 2.133894
v -9.330935 5.720103 2.109833
v -9.330935 3.823310 2.902871
v -9.330935 5.690857 2.878810
v -9.354852 3.823310 2.902871
v -9.354852 5.690857 2.878810
v -9.354852 3.852555 2.133894
v -9.354852 5.720103 2.109833
v -9.321998 4.804458 2.708737
v -9.321376 4.801093 2.727200
v -9.308764 4.801149 2.726823
v -9.309386 4.804503 2.708359
v -9.320797 4.789984 2.743651
v -9.308186 4.790052 2.743273
v -9.320332 4.772507 2.756103
v -9.307720 4.772564 2.755726
v -9.320034 4.750745 2.763046
v -9.307423 4.750790 2.762669
v -9.319942 4.727310 2.763650
v -9.307330 4.727367 2.763273
v -9.320065 4.705059 2.757841
v -9.307454 4.705115 2.757464
v -9.320390 4.686650 2.746314
v -9.307778 4.686706 2.745937
v -9.320876 4.674313 2.730467
v -9.308265 4.674369 2.730090
v -9.321465 4.669549 2.712214
v -9.308854 4.669605 2.711836
v -9.322087 4.672926 2.693743
v -9.309476 4.672971 2.693366
v -9.322666 4.684000 2.677293
v -9.310055 4.684068 2.676916
v -9.323133 4.701499 2.664847
v -9.310520 4.701556 2.664470
v -9.323429 4.723262 2.657905
v -9.310818 4.723319 2.657527
v -9.323522 4.746686 2.657301
v -9.310910 4.746742 2.656924
v -9.323398 4.768949 2.663109
v -9.310786 4.768993 2.662732
v -9.323073 4.787346 2.674630
v -9.310462 4.787403 2.674252
v -9.322587 4.799682 2.690476
v -9.309976 4.799740 2.690099
vt 0.375000 0.000000
vt 0.625000 0.000000
vt 0.625000 0.250000
vt 0.375000 0.250000
vt 0.625000 0.500000
vt 0.375000 0.500000
vt 0.375000 0.750000
vt 0.625000 0.750000
vt 0.625000 1.000000
vt 0.375000 1.000000
vt 0.875000 0.000000
vt 0.875000 0.250000
vt 0.125000 0.000000
vt 0.125000 0.250000
vt 0.750000 0.000000
vt 0.805600 0.000000
vt 0.805600 1.000000
vt 0.750000 1.000000
vt 0.861100 0.000000
vt 0.861100 1.000000
vt 0.916700 0.000000
vt 0.916700 1.000000
vt 0.972200 0.000000
vt 0.972200 1.000000
vt 1.027800 0.000000
vt 1.027800 1.000000
vt 0.027800 0.000000
vt 0.083300 0.000000
vt 0.083300 1.000000
vt 0.027800 1.000000
vt 0.138900 0.000000
vt 0.138900 1.000000
vt 0.194400 0.000000
vt 0.194400 1.000000
vt 0.250000 0.000000
vt 0.250000 1.000000
vt 0.305600 0.000000
vt 0.305600 1.000000
vt 0.361100 0.000000
vt 0.361100 1.000000
vt 0.416700 0.000000
vt 0.416700 1.000000
vt 0.472200 0.000000
vt 0.472200 1.000000
vt 0.527800 0.000000
vt 0.527800 1.000000
vt 0.583300 0.000000
vt 0.583300 1.000000
vt 0.638900 0.000000
vt 0.638900 1.000000
vt 0.694400 0.000000
vt 0.694400 1.000000
vt 0.821400 0.883000
vt 0.933000 0.750000
vt 0.992400 0.586800
vt 0.500000 1.000000
vt 0.992400 0.413200
vt 0.933000 0.250000
vt 0.671000 0.030200
vt 0.821400 0.117000
vt 0.500000 0.000000
vt 0.329000 0.030200
vt 0.067000 0.250000
vt 0.178600 0.117000
vt 0.007600 0.413200
vt 0.007600 0.586800
vt 0.178600 0.883000
vt 0.067000 0.750000
vt 0.329000 0.969800
vt 0.671000 0.969800
vt 0.329000 0.969800
vt 0.178600 0.883000
vt 0.067000 0.750000
vt 0.671000 0.969800
vt 0.007600 0.586800
vt 0.007600 0.413200
vt 0.178600 0.117000
vt 0.067000 0.250000
vt 0.329000 0.030200
vt 0.500000 0.000000
vt 0.821400 0.117000
vt 0.671000 0.030200
vt 0.933000 0.250000
vt 0.992400 0.413200
vt 0.933000 0.750000
vt 0.992400 0.586800
vt 0.821400 0.883000
vt 0.500000 1.000000
vn 1.000000 0.000000 0.000000
vn 1.000000 0.000000 0.000000
vn 1.000000 0.000000 0.000000
vn 1.000000 0.000000 0.000000
vn 0.000000 0.012883 0.999917
vn 0.000000 0.012882 0.999917
vn 0.000000 0.012883 0.999917
vn 0.000000 0.012882 0.999917
vn 0.000000 -0.012882 -0.999917
vn 0.000000 -0.012883 -0.999917
vn 0.000000 -0.012882 -0.999917
vn 0.000000 -0.012883 -0.999917
vn 0.000000 0.999278 0.038002
vn 0.000000 0.999278 0.038002
vn 0.000000 0.999278 0.038006
vn 0.000000 0.999278 0.038006
vn 0.000000 -0.999278 -0.038005
vn 0.000000 -0.999278 -0.038005
vn 0.000000 -0.999278 -0.038002
vn 0.000000 -0.999278 -0.038002
vn -0.004923 0.999248 -0.038466
vn 0.007500 0.924023 0.382264
vn -0.004864 0.999283 -0.037544
vn 0.007206 0.923845 0.382698
vn 0.017331 0.711352 0.702622
vn 0.017269 0.711255 0.702722
vn 0.024714 0.443329 0.896018
vn 0.024838 0.443235 0.896061
vn 0.028858 0.164886 0.985890
vn 0.028909 0.164875 0.985891
vn 0.030215 -0.113322 0.993099
vn 0.030222 -0.113011 0.993134
vn 0.029254 -0.392530 0.919274
vn 0.029269 -0.392075 0.919468
vn 0.025284 -0.665384 0.746073
vn 0.025305 -0.664869 0.746531
vn 0.017374 -0.894169 0.447392
vn 0.017392 -0.893782 0.448165
vn 0.005434 -0.999289 0.037311
vn 0.005636 -0.999251 0.038290
vn -0.007873 -0.923794 -0.382809
vn -0.007977 -0.924031 -0.382235
vn -0.017155 -0.711240 -0.702740
vn -0.017517 -0.711279 -0.702692
vn -0.024688 -0.443075 -0.896145
vn -0.024775 -0.443115 -0.896122
vn -0.028758 -0.164969 -0.985879
vn -0.028759 -0.164813 -0.985906
vn -0.030213 0.113008 -0.993135
vn -0.030172 0.113319 -0.993100
vn -0.028923 0.392091 -0.919472
vn -0.028973 0.392373 -0.919350
vn -0.025225 0.664818 -0.746580
vn -0.025325 0.665281 -0.746164
vn -0.017498 0.893699 -0.448327
vn -0.017309 0.894149 -0.447436
vn -0.999448 -0.003079 0.033078
vn -0.999448 -0.003074 0.033089
vn -0.999449 -0.003029 0.033048
vn -0.999448 -0.003179 0.033077
vn -0.999448 -0.003159 0.033077
vn -0.999448 -0.003108 0.033076
vn -0.999446 -0.003047 0.033136
vn -0.999448 -0.003176 0.033072
vn -0.999447 -0.003219 0.033083
vn -0.999448 -0.003078 0.033080
vn -0.999448 -0.003046 0.033079
vn -0.999447 -0.003188 0.033116
vn -0.999447 -0.003125 0.033110
vn -0.999448 -0.003081 0.033082
vn -0.999449 -0.003045 0.033056
vn -0.999453 -0.003185 0.032912
vn -0.999447 -0.003175 0.033087
vn -0.999449 -0.002987 0.033059
vn 0.999448 0.003097 -0.033073
vn 0.999448 0.002996 -0.033076
vn 0.999447 0.003133 -0.033092
vn 0.999448 0.003182 -0.033080
vn 0.999447 0.003107 -0.033115
vn 0.999448 0.003089 -0.033076
vn 0.999448 0.003042 -0.033093
vn 0.999452 0.002987 -0.032966
vn 0.999448 0.002977 -0.033083
vn 0.999448 0.003090 -0.033079
vn 0.999447 0.003318 -0.033075
vn 0.999447 0.003185 -0.033087
vn 0.999449 0.003093 -0.033036
vn 0.999448 0.003092 -0.033074
vn 0.999446 0.003088 -0.033149
vn 0.999445 0.003089 -0.033181
vn 0.999448 0.003045 -0.033071
vn 0.999448 0.003194 -0.033079
s 1
g polySurface254
usemtl lambert2SG
f 2/2/1 4/3/2 1/1/3
f 1/1/3 4/3/2 3/4/4
s 2
f 3/4/5 4/3/6 5/6/7
f 5/6/7 4/3/6 6/5/8
s 3
f 7/7/9 8/8/10 1/10/11
f 1/10/11 8/8/10 2/9/12
s 4
f 2/2/13 8/11/14 4/3/15
f 4/3/15 8/11/14 6/12/16
s 5
f 7/13/17 1/1/18 5/14/19
f 5/14/19 1/1/18 3/4/20
s 6
usemtl lambert3SG
f 9/15/21 10/16/22 12/18/23
f 12/18/23 10/16/22 11/17/24
f 10/16/22 13/19/25 11/17/24
f 11/17/24 13/19/25 14/20/26
f 13/19/25 15/21/27 14/20/26
f 14/20/26 15/21/27 16/22/28
f 15/21/27 17/23/29 16/22/28
f 16/22/28 17/23/29 18/24/30
f 19/25/31 20/26/32 17/23/29
f 17/23/29 20/26/32 18/24/30
f 21/28/33 22/29/34 19/27/31
f 19/27/31 22/29/34 20/30/32
f 23/31/35 24/32/36 21/28/33
f 21/28/33 24/32/36 22/29/34
f 25/33/37 26/34/38 23/31/35
f 23/31/35 26/34/38 24/32/36
f 27/35/39 28/36/40 25/33/37
f 25/33/37 28/36/40 26/34/38
f 29/37/41 30/38/42 27/35/39
f 27/35/39 30/38/42 28/36/40
f 31/39/43 32/40/44 29/37/41
f 29/37/41 32/40/44 30/38/42
f 31/39/43 33/41/45 32/40/44
f 32/40/44 33/41/45 34/42/46
f 33/41/45 35/43/47 34/42/46
f 34/42/46 35/43/47 36/44/48
f 35/43/47 37/45/49 36/44/48
f 36/44/48 37/45/49 38/46/50
f 37/45/49 39/47/51 38/46/50
f 38/46/50 39/47/51 40/48/52
f 39/47/51 41/49/53 40/48/52
f 40/48/52 41/49/53 42/50/54
f 41/49/53 43/51/55 42/50/54
f 42/50/54 43/51/55 44/52/56
f 43/51/55 9/15/21 44/52/56
f 44/52/56 9/15/21 12/18/23
s 14
f 37/55/57 9/56/58 39/54/59
f 41/53/60 39/54/59 9/56/58
f 37/55/57 35/57/61 29/59/62
f 35/57/61 33/58/63 29/59/62
f 33/58/63 31/60/64 29/59/62
f 29/59/62 27/61/65 21/63/66
f 27/61/65 25/62/67 21/63/66
f 25/62/67 23/64/68 21/63/66
f 21/63/66 19/65/69 13/67/70
f 19/65/69 17/66/71 13/67/70
f 17/66/71 15/68/72 13/67/70
f 29/59/62 21/63/66 37/55/57
f 37/55/57 21/63/66 13/67/70
f 13/67/70 10/69/73 37/55/57
f 10/69/73 9/56/58 37/55/57
f 43/70/74 41/53/60 9/56/58
s 18
f 16/73/75 44/74/76 14/72/77
f 11/71/78 14/72/77 44/74/76
f 16/73/75 18/75/79 24/77/80
f 18/75/79 20/76/81 24/77/80
f 20/76/81 22/78/82 24/77/80
f 24/77/80 26/79/83 32/81/84
f 26/79/83 28/80/85 32/81/84
f 28/80/85 30/82/86 32/81/84
f 32/81/84 34/83/87 40/85/88
f 34/83/87 36/84/89 40/85/88
f 36/84/89 38/86/90 40/85/88
f 32/81/84 40/85/88 24/77/80
f 24/77/80 40/85/88 16/73/75
f 40/85/88 42/87/91 16/73/75
f 42/87/91 44/74/76 16/73/75
f 12/88/92 11/71/78 44/74/76
g default
v -9.330935 3.852555 2.133894
v -9.330935 5.720103 2.109833
v -9.330935 3.823310 2.902871
v -9.330935 5.690857 2.878810
v -9.354852 3.823310 2.902871
v -9.354852 5.690857 2.878810
v -9.354852 3.852555 2.133894
v -9.354852 5.720103 2.109833
v -9.321998 4.804458 2.708737
v -9.321376 4.801093 2.727200
v -9.308764 4.801149 2.726823
v -9.309386 4.804503 2.708359
v -9.320797 4.789984 2.743651
v -9.308186 4.790052 2.743273
v -9.320332 4.772507 2.756103
v -9.307720 4.772564 2.755726
v -9.320034 4.750745 2.763046
v -9.307423 4.750790 2.762669
v -9.319942 4.727310 2.763650
v -9.307330 4.727367 2.763273
v -9.320065 4.705059 2.757841
v -9.307454 4.705115 2.757464
v -9.320390 4.686650 2.746314
v -9.307778 4.686706 2.745937
v -9.320876 4.674313 2.730467
v -9.308265 4.674369 2.730090
v -9.321465 4.669549 2.712214
v -9.308854 4.669605 2.711836
v -9.322087 4.672926 2.693743
v -9.309476 4.672971 2.693366
v -9.322666 4.684000 2.677293
v -9.310055 4.684068 2.676916
v -9.323133 4.701499 2.664847
v -9.310520 4.701556 2.664470
v -9.323429 4.723262 2.657905
v -9.310818 4.723319 2.657527
v -9.323522 4.746686 2.657301
v -9.310910 4.746742 2.656924
v -9.323398 4.768949 2.663109
v -9.310786 4.768993 2.662732
v -9.323073 4.787346 2.674630
v -9.310462 4.787403 2.674252
v -9.322587 4.799682 2.690476
v -9.309976 4.799740 2.690099
vt 0.375000 0.000000
vt 0.625000 0.000000
vt 0.625000 0.250000
vt 0.375000 0.250000
vt 0.625000 0.500000
vt 0.375000 0.500000
vt 0.375000 0.750000
vt 0.625000 0.750000
vt 0.625000 1.000000
vt 0.375000 1.000000
vt 0.875000 0.000000
vt 0.875000 0.250000
vt 0.125000 0.000000
vt 0.125000 0.250000
vt 0.750000 0.000000
vt 0.805600 0.000000
vt 0.805600 1.000000
vt 0.750000 1.000000
vt 0.861100 0.000000
vt 0.861100 1.000000
vt 0.916700 0.000000
vt 0.916700 1.000000
vt 0.972200 0.000000
vt 0.972200 1.000000
vt 1.027800 0.000000
vt 1.027800 1.000000
vt 0.027800 0.000000
vt 0.083300 0.000000
vt 0.083300 1.000000
vt 0.027800 1.000000
vt 0.138900 0.000000
vt 0.138900 1.000000
vt 0.194400 0.000000
vt 0.194400 1.000000
vt 0.250000 0.000000
vt 0.250000 1.000000
vt 0.305600 0.000000
vt 0.305600 1.000000
vt 0.361100 0.000000
vt 0.361100 1.000000
vt 0.416700 0.000000
vt 0.416700 1.000000
vt 0.472200 0.000000
vt 0.472200 1.000000
vt 0.527800 0.000000
vt 0.527800 1.000000
vt 0.583300 0.000000
vt 0.583300 1.000000
vt 0.638900 0.000000
vt 0.638900 1.000000
vt 0.694400 0.000000
vt 0.694400 1.000000
vt 0.821400 0.883000
vt 0.933000 0.750000
vt 0.992400 0.586800
vt 0.500000 1.000000
vt 0.992400 0.413200
vt 0.933000 0.250000
vt 0.671000 0.030200
vt 0.821400 0.117000
vt 0.500000 0.000000
vt 0.329000 0.030200
vt 0.067000 0.250000
vt 0.178600 0.117000
vt 0.007600 0.413200
vt 0.007600 0.586800
vt 0.178600 0.883000
vt 0.067000 0.750000
vt 0.329000 0.969800
vt 0.671000 0.969800
vt 0.329000 0.969800
vt 0.178600 0.883000
vt 0.067000 0.750000
vt 0.671000 0.969800
vt 0.007600 0.586800
vt 0.007600 0.413200
vt 0.178600 0.117000
vt 0.067000 0.250000
vt 0.329000 0.030200
vt 0.500000 0.000000
vt 0.821400 0.117000
vt 0.671000 0.030200
vt 0.933000 0.250000
vt 0.992400 0.413200
vt 0.933000 0.750000
vt 0.992400 0.586800
vt 0.821400 0.883000
vt 0.500000 1.000000
vn 1.000000 0.000000 0.000000
vn 1.000000 0.000000 0.000000
vn 1.000000 0.000000 0.000000
vn 1.000000 0.000000 0.000000
vn 0.000000 0.012883 0.999917
vn 0.000000 0.012882 0.999917
vn 0.000000 0.012883 0.999917
vn 0.000000 0.012882 0.999917
vn 0.000000 -0.012882 -0.999917
vn 0.000000 -0.012883 -0.999917
vn 0.000000 -0.012882 -0.999917
vn 0.000000 -0.012883 -0.999917
vn 0.000000 0.999278 0.038002
vn 0.000000 0.999278 0.038002
vn 0.000000 0.999278 0.038006
vn 0.000000 0.999278 0.038006
vn 0.000000 -0.999278 -0.038005
vn 0.000000 -0.999278 -0.038005
vn 0.000000 -0.999278 -0.038002
vn 0.000000 -0.999278 -0.038002
vn -0.004923 0.999248 -0.038466
vn 0.007500 0.924023 0.382264
vn -0.004864 0.999283 -0.037544
vn 0.007206 0.923845 0.382698
vn 0.017331 0.711352 0.702622
vn 0.017269 0.711255 0.702722
vn 0.024714 0.443329 0.896018
vn 0.024838 0.443235 0.896061
vn 0.028858 0.164886 0.985890
vn 0.028909 0.164875 0.985891
vn 0.030215 -0.113322 0.993099
vn 0.030222 -0.113011 0.993134
vn 0.029254 -0.392530 0.919274
vn 0.029269 -0.392075 0.919468
vn 0.025284 -0.665384 0.746073
vn 0.025305 -0.664869 0.746531
vn 0.017374 -0.894169 0.447392
vn 0.017392 -0.893782 0.448165
vn 0.005434 -0.999289 0.037311
vn 0.005636 -0.999251 0.038290
vn -0.007873 -0.923794 -0.382809
vn -0.007977 -0.924031 -0.382235
vn -0.017155 -0.711240 -0.702740
vn -0.017517 -0.711279 -0.702692
vn -0.024688 -0.443075 -0.896145
vn -0.024775 -0.443115 -0.896122
vn -0.028758 -0.164969 -0.985879
vn -0.028759 -0.164813 -0.985906
vn -0.030213 0.113008 -0.993135
vn -0.030172 0.113319 -0.993100
vn -0.028923 0.392091 -0.919472
vn -0.028973 0.392373 -0.919350
vn -0.025225 0.664818 -0.746580
vn -0.025325 0.665281 -0.746164
vn -0.017498 0.893699 -0.448327
vn -0.017309 0.894149 -0.447436
vn -0.999448 -0.003079 0.033078
vn -0.999448 -0.003074 0.033089
vn -0.999449 -0.003029 0.033048
vn -0.999448 -0.003179 0.033077
vn -0.999448 -0.003159 0.033077
vn -0.999448 -0.003108 0.033076
vn -0.999446 -0.003047 0.033136
vn -0.999448 -0.003176 0.033072
vn -0.999447 -0.003219 0.033083
vn -0.999448 -0.003078 0.033080
vn -0.999448 -0.003046 0.033079
vn -0.999447 -0.003188 0.033116
vn -0.999447 -0.003125 0.033110
vn -0.999448 -0.003081 0.033082
vn -0.999449 -0.003045 0.033056
vn -0.999453 -0.003185 0.032912
vn -0.999447 -0.003175 0.033087
vn -0.999449 -0.002987 0.033059
vn 0.999448 0.003097 -0.033073
vn 0.999448 0.002996 -0.033076
vn 0.999447 0.003133 -0.033092
vn 0.999448 0.003182 -0.033080
vn 0.999447 0.003107 -0.033115
vn 0.999448 0.003089 -0.033076
vn 0.999448 0.003042 -0.033093
vn 0.999452 0.002987 -0.032966
vn 0.999448 0.002977 -0.033083
vn 0.999448 0.003090 -0.033079
vn 0.999447 0.003318 -0.033075
vn 0.999447 0.003185 -0.033087
vn 0.999449 0.003093 -0.033036
vn 0.999448 0.003092 -0.033074
vn 0.999446 0.003088 -0.033149
vn 0.999445 0.003089 -0.033181
vn 0.999448 0.003045 -0.033071
vn 0.999448 0.003194 -0.033079
s 1
g polySurface254
f 46/90/93 48/91/94 45/89/95
f 45/89/95 48/91/94 47/92/96
s 2
f 47/92/97 48/91/98 49/94/99
f 49/94/99 48/91/98 50/93/100
s 3
f 51/95/101 52/96/102 45/98/103
f 45/98/103 52/96/102 46/97/104
s 4
f 46/90/105 52/99/106 48/91/107
f 48/91/107 52/99/106 50/100/108
s 5
f 51/101/109 45/89/110 49/102/111
f 49/102/111 45/89/110 47/92/112
s 6
f 53/103/113 54/104/114 56/106/115
f 56/106/115 54/104/114 55/105/116
f 54/104/114 57/107/117 55/105/116
f 55/105/116 57/107/117 58/108/118
f 57/107/117 59/109/119 58/108/118
f 58/108/118 59/109/119 60/110/120
f 59/109/119 61/111/121 60/110/120
f 60/110/120 61/111/121 62/112/122
f 63/113/123 64/114/124 61/111/121
f 61/111/121 64/114/124 62/112/122
f 65/116/125 66/117/126 63/115/123
f 63/115/123 66/117/126 64/118/124
f 67/119/127 68/120/128 65/116/125
f 65/116/125 68/120/128 66/117/126
f 69/121/129 70/122/130 67/119/127
f 67/119/127 70/122/130 68/120/128
f 71/123/131 72/124/132 69/121/129
f 69/121/129 72/124/132 70/122/130
f 73/125/133 74/126/134 71/123/131
f 71/123/131 74/126/134 72/124/132
f 75/127/135 76/128/136 73/125/133
f 73/125/133 76/128/136 74/126/134
f 75/127/135 77/129/137 76/128/136
f 76/128/136 77/129/137 78/130/138
f 77/129/137 79/131/139 78/130/138
f 78/130/138 79/131/139 80/132/140
f 79/131/139 81/133/141 80/132/140
f 80/132/140 81/133/141 82/134/142
f 81/133/141 83/135/143 82/134/142
f 82/134/142 83/135/143 84/136/144
f 83/135/143 85/137/145 84/136/144
f 84/136/144 85/137/145 86/138/146
f 85/137/145 87/139/147 86/138/146
f 86/138/146 87/139/147 88/140/148
f 87/139/147 53/103/113 88/140/148
f 88/140/148 53/103/113 56/106/115
s 14
f 81/143/149 53/144/150 83/142/151
f 85/141/152 83/142/151 53/144/150
f 81/143/149 79/145/153 73/147/154
f 79/145/153 77/146/155 73/147/154
f 77/146/155 75/148/156 73/147/154
f 73/147/154 71/149/157 65/151/158
f 71/149/157 69/150/159 65/151/158
f 69/150/159 67/152/160 65/151/158
f 65/151/158 63/153/161 57/155/162
f 63/153/161 61/154/163 57/155/162
f 61/154/163 59/156/164 57/155/162
f 73/147/154 65/151/158 81/143/149
f 81/143/149 65/151/158 57/155/162
f 57/155/162 54/157/165 81/143/149
f 54/157/165 53/144/150 81/143/149
f 87/158/166 85/141/152 53/144/150
s 18
f 60/161/167 88/162/168 58/160/169
f 55/159/170 58/160/169 88/162/168
f 60/161/167 62/163/171 68/165/172
f 62/163/171 64/164/173 68/165/172
f 64/164/173 66/166/174 68/165/172
f 68/165/172 70/167/175 76/169/176
f 70/167/175 72/168/177 76/169/176
f 72/168/177 74/170/178 76/169/176
f 76/169/176 78/171/179 84/173/180
f 78/171/179 80/172/181 84/173/180
f 80/172/181 82/174/182 84/173/180
f 76/169/176 84/173/180 68/165/172
f 68/165/172 84/173/180 60/161/167
f 84/173/180 86/175/183 60/161/167
f 86/175/183 88/162/168 60/161/167
f 56/176/184 55/159/170 88/162/168
