# This file uses centimeters as units for non-parametric coordinates.

mtllib manecilla.mtl
g default
v 0.054146 0.021395 -0.063778
v 0.050623 0.022856 -0.063778
v 0.050623 0.022856 -0.068771
v 0.054146 0.021395 -0.068771
v 0.057850 0.020519 -0.063778
v 0.057850 0.020519 -0.068771
v 0.061648 0.020252 -0.063778
v 0.061648 0.020252 -0.068771
v 0.065481 0.020622 -0.063778
v 0.065481 0.020622 -0.068771
v 0.069262 0.021644 -0.063778
v 0.069262 0.021644 -0.068771
v 0.072906 0.023354 -0.063778
v 0.072906 0.023354 -0.068771
v 0.076197 0.025649 -0.063778
v 0.076197 0.025649 -0.068771
v 0.078973 0.028407 -0.063778
v 0.078973 0.028407 -0.068771
v 0.081225 0.031553 -0.063778
v 0.081225 0.031553 -0.068771
v 0.082917 0.034981 -0.063778
v 0.082917 0.034981 -0.068771
v 0.084035 0.038634 -0.063778
v 0.084035 0.038634 -0.068771
v 0.084559 0.042406 -0.063778
v 0.084559 0.042406 -0.068771
v 0.084456 0.046230 -0.063778
v 0.084456 0.046230 -0.068771
v 0.514200 0.300014 -0.063778
v 0.514200 0.300014 -0.068771
v 0.509525 0.308117 -0.063778
v 0.509525 0.308117 -0.068771
v 0.075209 0.062197 -0.063778
v 0.075209 0.062197 -0.068771
v 0.071952 0.064217 -0.063778
v 0.071952 0.064217 -0.068771
v 0.068420 0.065669 -0.063778
v 0.068420 0.065669 -0.068771
v 0.064708 0.066537 -0.063778
v 0.064708 0.066537 -0.068771
v 0.060892 0.066795 -0.063778
v 0.060892 0.066795 -0.068771
v 0.057051 0.066417 -0.063778
v 0.057051 0.066417 -0.068771
v 0.053261 0.065385 -0.063778
v 0.053261 0.065385 -0.068771
v 0.049617 0.063684 -0.063778
v 0.049617 0.063684 -0.068771
v 0.046318 0.061381 -0.063778
v 0.046318 0.061381 -0.068771
v 0.043542 0.058614 -0.063778
v 0.043542 0.058614 -0.068771
v 0.041299 0.055477 -0.063778
v 0.041299 0.055477 -0.068771
v 0.039623 0.052048 -0.063778
v 0.039623 0.052048 -0.068771
v 0.038532 0.048405 -0.063778
v 0.038532 0.048405 -0.068771
v 0.038033 0.044623 -0.063778
v 0.038033 0.044623 -0.068771
v 0.038162 0.040782 -0.063778
v 0.038162 0.040782 -0.068771
v -0.011104 0.012303 -0.063778
v -0.011104 0.012303 -0.068771
v -0.002451 -0.003835 -0.063778
v -0.002451 -0.003835 -0.068771
v 0.047375 0.024884 -0.063778
v 0.047375 0.024884 -0.068771
vt 0.245900 -1.533300
vt 0.198200 -1.569800
vt 0.198200 -1.569800
vt 0.245900 -1.533300
vt 0.287100 -1.489700
vt 0.245900 -1.533300
vt 0.245900 -1.533300
vt 0.287100 -1.489700
vt 0.320700 -1.439800
vt 0.287100 -1.489700
vt 0.287100 -1.489700
vt 0.320700 -1.439800
vt 0.345900 -1.384600
vt 0.320700 -1.439800
vt 0.320700 -1.439800
vt 0.345900 -1.384600
vt 0.361700 -1.324900
vt 0.345900 -1.384600
vt 0.345900 -1.384600
vt 0.361700 -1.324900
vt 0.367100 -1.261700
vt 0.361700 -1.324900
vt 0.361700 -1.324900
vt 0.367100 -1.261700
vt 0.361700 -1.198700
vt 0.367100 -1.261700
vt 0.367100 -1.261700
vt 0.361700 -1.198700
vt 0.345900 -1.139000
vt 0.361700 -1.198700
vt 0.361700 -1.198700
vt 0.345900 -1.139000
vt 0.320800 -1.083500
vt 0.345900 -1.139000
vt 0.345900 -1.139000
vt 0.320800 -1.083500
vt 0.287200 -1.033300
vt 0.320800 -1.083500
vt 0.320800 -1.083500
vt 0.287200 -1.033300
vt 0.246300 -0.989300
vt 0.287200 -1.033300
vt 0.287200 -1.033300
vt 0.246300 -0.989300
vt 0.198800 -0.952400
vt 0.246300 -0.989300
vt 0.246300 -0.989300
vt 0.198800 -0.952400
vt 0.145800 -0.923700
vt 0.198800 -0.952400
vt 0.198800 -0.952400
vt 0.145800 -0.923700
vt 0.068300 6.944500
vt 0.145800 -0.923700
vt 0.145800 -0.923700
vt 0.068300 6.944500
vt -0.079200 6.944500
vt -0.079200 6.944500
vt -0.145100 -0.924000
vt -0.145100 -0.924000
vt -0.198400 -0.952600
vt -0.145100 -0.924000
vt -0.145100 -0.924000
vt -0.198400 -0.952600
vt -0.246000 -0.989300
vt -0.198400 -0.952600
vt -0.198400 -0.952600
vt -0.246000 -0.989300
vt -0.287100 -1.033200
vt -0.246000 -0.989300
vt -0.246000 -0.989300
vt -0.287100 -1.033200
vt -0.320700 -1.083300
vt -0.287100 -1.033200
vt -0.287100 -1.033200
vt -0.320700 -1.083300
vt -0.345900 -1.138700
vt -0.320700 -1.083300
vt -0.320700 -1.083300
vt -0.345900 -1.138700
vt -0.361700 -1.198500
vt -0.345900 -1.138700
vt -0.345900 -1.138700
vt -0.361700 -1.198500
vt -0.367100 -1.261700
vt -0.361700 -1.198500
vt -0.361700 -1.198500
vt -0.367100 -1.261700
vt -0.361700 -1.325000
vt -0.367100 -1.261700
vt -0.367100 -1.261700
vt -0.361700 -1.325000
vt -0.345900 -1.384700
vt -0.361700 -1.325000
vt -0.361700 -1.325000
vt -0.345900 -1.384700
vt -0.320700 -1.440000
vt -0.345900 -1.384700
vt -0.345900 -1.384700
vt -0.320700 -1.440000
vt -0.287100 -1.489900
vt -0.320700 -1.440000
vt -0.320700 -1.440000
vt -0.287100 -1.489900
vt -0.245900 -1.533600
vt -0.287100 -1.489900
vt -0.287100 -1.489900
vt -0.245900 -1.533600
vt -0.198200 -1.570100
vt -0.245900 -1.533600
vt -0.245900 -1.533600
vt -0.198200 -1.570100
vt -0.144800 -1.598600
vt -0.198200 -1.570100
vt -0.198200 -1.570100
vt -0.144800 -1.598600
vt -0.144300 -2.495800
vt -0.144800 -1.598600
vt -0.144800 -1.598600
vt -0.144300 -2.495800
vt 0.144300 -2.504900
vt -0.144300 -2.495800
vt -0.144300 -2.495800
vt 0.144300 -2.504900
vt 0.144800 -1.598300
vt 0.144300 -2.504900
vt 0.144300 -2.504900
vt 0.144800 -1.598300
vt 0.198200 -1.569800
vt 0.144800 -1.598300
vt 0.144800 -1.598300
vt 0.198200 -1.569800
vt 0.144800 -1.598300
vt 0.144300 -2.504900
vt -0.144300 -2.495800
vt -0.144800 -1.598600
vt -0.287100 -1.489900
vt -0.320700 -1.440000
vt -0.345900 -1.384700
vt -0.361700 -1.325000
vt -0.287100 -1.489900
vt -0.361700 -1.325000
vt -0.367100 -1.261700
vt -0.361700 -1.198500
vt -0.287100 -1.489900
vt -0.361700 -1.198500
vt -0.345900 -1.138700
vt -0.320700 -1.083300
vt -0.245900 -1.533600
vt -0.287100 -1.489900
vt -0.320700 -1.083300
vt -0.198200 -1.570100
vt -0.144800 -1.598600
vt -0.198200 -1.570100
vt -0.320700 -1.083300
vt 0.144800 -1.598300
vt 0.198200 -1.569800
vt 0.144800 -1.598300
vt -0.320700 -1.083300
vt 0.245900 -1.533300
vt 0.287100 -1.489700
vt 0.245900 -1.533300
vt -0.320700 -1.083300
vt 0.320700 -1.439800
vt 0.345900 -1.384600
vt 0.320700 -1.439800
vt -0.320700 -1.083300
vt 0.361700 -1.324900
vt 0.367100 -1.261700
vt 0.361700 -1.324900
vt -0.320700 -1.083300
vt 0.361700 -1.198700
vt 0.345900 -1.139000
vt 0.361700 -1.198700
vt -0.320700 -1.083300
vt 0.320800 -1.083500
vt 0.320800 -1.083500
vt -0.320700 -1.083300
vt -0.287100 -1.033200
vt 0.287200 -1.033300
vt 0.287200 -1.033300
vt -0.287100 -1.033200
vt -0.246000 -0.989300
vt -0.198400 -0.952600
vt 0.246300 -0.989300
vt 0.287200 -1.033300
vt -0.198400 -0.952600
vt -0.145100 -0.924000
vt 0.198800 -0.952400
vt 0.246300 -0.989300
vt -0.145100 -0.924000
vt 0.145800 -0.923700
vt 0.145800 -0.923700
vt -0.145100 -0.924000
vt -0.145100 -0.924000
vt 0.145800 -0.923700
vt -0.345900 -1.384700
vt -0.320700 -1.440000
vt -0.287100 -1.489900
vt -0.361700 -1.325000
vt -0.367100 -1.261700
vt -0.361700 -1.325000
vt -0.287100 -1.489900
vt -0.361700 -1.198500
vt -0.345900 -1.138700
vt -0.361700 -1.198500
vt -0.287100 -1.489900
vt -0.320700 -1.083300
vt -0.320700 -1.083300
vt -0.287100 -1.489900
vt -0.245900 -1.533600
vt -0.198200 -1.570100
vt -0.320700 -1.083300
vt -0.198200 -1.570100
vt -0.144800 -1.598600
vt 0.144800 -1.598300
vt -0.144300 -2.495800
vt 0.144300 -2.504900
vt 0.144800 -1.598300
vt -0.144800 -1.598600
vt -0.320700 -1.083300
vt 0.144800 -1.598300
vt 0.198200 -1.569800
vt 0.245900 -1.533300
vt -0.320700 -1.083300
vt 0.245900 -1.533300
vt 0.287100 -1.489700
vt 0.320700 -1.439800
vt -0.320700 -1.083300
vt 0.320700 -1.439800
vt 0.345900 -1.384600
vt 0.361700 -1.324900
vt -0.320700 -1.083300
vt 0.361700 -1.324900
vt 0.367100 -1.261700
vt 0.361700 -1.198700
vt -0.320700 -1.083300
vt 0.361700 -1.198700
vt 0.345900 -1.139000
vt 0.320800 -1.083500
vt -0.287100 -1.033200
vt -0.320700 -1.083300
vt 0.320800 -1.083500
vt 0.287200 -1.033300
vt -0.246000 -0.989300
vt -0.287100 -1.033200
vt 0.287200 -1.033300
vt -0.198400 -0.952600
vt -0.198400 -0.952600
vt 0.287200 -1.033300
vt 0.246300 -0.989300
vt -0.145100 -0.924000
vt -0.145100 -0.924000
vt 0.246300 -0.989300
vt 0.198800 -0.952400
vt 0.145800 -0.923700
vn -0.308297 -0.951290 0.000000
vn -0.457901 -0.889003 0.000000
vn -0.457901 -0.889003 0.000000
vn -0.308297 -0.951290 0.000000
vn -0.150501 -0.988610 0.000000
vn -0.308297 -0.951290 0.000000
vn -0.308297 -0.951290 0.000000
vn -0.150501 -0.988610 0.000000
vn 0.013000 -0.999915 0.000000
vn -0.150501 -0.988610 0.000000
vn -0.150501 -0.988610 0.000000
vn 0.013000 -0.999915 0.000000
vn 0.179299 -0.983795 0.000000
vn 0.013000 -0.999915 0.000000
vn 0.013000 -0.999915 0.000000
vn 0.179299 -0.983795 0.000000
vn 0.343814 -0.939038 0.000000
vn 0.179299 -0.983795 0.000000
vn 0.179299 -0.983795 0.000000
vn 0.343814 -0.939038 0.000000
vn 0.500086 -0.865976 0.000000
vn 0.343814 -0.939038 0.000000
vn 0.343814 -0.939038 0.000000
vn 0.500086 -0.865976 0.000000
vn 0.641187 -0.767385 0.000000
vn 0.500086 -0.865976 0.000000
vn 0.500086 -0.865976 0.000000
vn 0.641187 -0.767385 0.000000
vn 0.761483 -0.648185 0.000000
vn 0.641187 -0.767385 0.000000
vn 0.641187 -0.767385 0.000000
vn 0.761483 -0.648185 0.000000
vn 0.857722 -0.514113 0.000000
vn 0.761483 -0.648185 0.000000
vn 0.761483 -0.648185 0.000000
vn 0.857722 -0.514113 0.000000
vn 0.929391 -0.369096 0.000000
vn 0.857722 -0.514113 0.000000
vn 0.857722 -0.514113 0.000000
vn 0.929391 -0.369096 0.000000
vn 0.976504 -0.215501 0.000000
vn 0.929391 -0.369096 0.000000
vn 0.929391 -0.369096 0.000000
vn 0.976504 -0.215501 0.000000
vn 0.998481 -0.055099 0.000000
vn 0.976504 -0.215501 0.000000
vn 0.976504 -0.215501 0.000000
vn 0.998481 -0.055099 0.000000
vn 0.999646 0.026601 0.000000
vn 0.998481 -0.055099 0.000000
vn 0.998481 -0.055099 0.000000
vn 0.999646 0.026601 0.000000
vn 0.508483 -0.861072 0.000000
vn 0.508483 -0.861072 0.000000
vn 0.508483 -0.861072 0.000000
vn 0.508483 -0.861072 0.000000
vn 0.866019 0.500011 0.000000
vn 0.866019 0.500011 0.000000
vn 0.866019 0.500011 0.000000
vn 0.866019 0.500011 0.000000
vn -0.492700 0.870199 0.000000
vn -0.492700 0.870199 0.000000
vn -0.492700 0.870199 0.000000
vn -0.492700 0.870199 0.000000
vn 0.455315 0.890330 0.000000
vn 0.526606 0.850110 0.000000
vn 0.526606 0.850110 0.000000
vn 0.455315 0.890330 0.000000
vn 0.305015 0.952347 0.000000
vn 0.455315 0.890330 0.000000
vn 0.455315 0.890330 0.000000
vn 0.305015 0.952347 0.000000
vn 0.147494 0.989063 0.000000
vn 0.305015 0.952347 0.000000
vn 0.305015 0.952347 0.000000
vn 0.147494 0.989063 0.000000
vn -0.015100 0.999886 0.000000
vn 0.147494 0.989063 0.000000
vn 0.147494 0.989063 0.000000
vn -0.015100 0.999886 0.000000
vn -0.180302 0.983611 0.000000
vn -0.015100 0.999886 0.000000
vn -0.015100 0.999886 0.000000
vn -0.180302 0.983611 0.000000
vn -0.344111 0.938929 0.000000
vn -0.180302 0.983611 0.000000
vn -0.180302 0.983611 0.000000
vn -0.344111 0.938929 0.000000
vn -0.500011 0.866019 0.000000
vn -0.344111 0.938929 0.000000
vn -0.344111 0.938929 0.000000
vn -0.500011 0.866019 0.000000
vn -0.641187 0.767385 0.000000
vn -0.500011 0.866019 0.000000
vn -0.500011 0.866019 0.000000
vn -0.641187 0.767385 0.000000
vn -0.762129 0.647425 0.000000
vn -0.641187 0.767385 0.000000
vn -0.641187 0.767385 0.000000
vn -0.762129 0.647425 0.000000
vn -0.859218 0.511610 0.000000
vn -0.762129 0.647425 0.000000
vn -0.762129 0.647425 0.000000
vn -0.859218 0.511610 0.000000
vn -0.931203 0.364501 0.000000
vn -0.859218 0.511610 0.000000
vn -0.859218 0.511610 0.000000
vn -0.931203 0.364501 0.000000
vn -0.977894 0.209099 0.000000
vn -0.931203 0.364501 0.000000
vn -0.931203 0.364501 0.000000
vn -0.977894 0.209099 0.000000
vn -0.998847 0.048002 0.000000
vn -0.977894 0.209099 0.000000
vn -0.977894 0.209099 0.000000
vn -0.998847 0.048002 0.000000
vn -0.999435 -0.033601 0.000000
vn -0.998847 0.048002 0.000000
vn -0.998847 0.048002 0.000000
vn -0.999435 -0.033601 0.000000
vn -0.500516 0.865727 0.000000
vn -0.500516 0.865727 0.000000
vn -0.500516 0.865727 0.000000
vn -0.500516 0.865727 0.000000
vn -0.881282 -0.472590 0.000000
vn -0.881282 -0.472590 0.000000
vn -0.881282 -0.472590 0.000000
vn -0.881282 -0.472590 0.000000
vn 0.499431 -0.866354 0.000000
vn 0.499431 -0.866354 0.000000
vn 0.499431 -0.866354 0.000000
vn 0.499431 -0.866354 0.000000
vn -0.457901 -0.889003 0.000000
vn -0.528632 -0.848851 0.000000
vn -0.528632 -0.848851 0.000000
vn -0.457901 -0.889003 0.000000
vn 0.000000 0.000000 -1.000000
vn 0.000000 0.000000 -1.000000
vn 0.000000 0.000000 -1.000000
vn 0.000000 0.000000 -1.000000
vn 0.000000 0.000000 -1.000000
vn 0.000000 0.000000 -1.000000
vn 0.000000 0.000000 -1.000000
vn 0.000000 0.000000 -1.000000
vn 0.000000 0.000000 -1.000000
vn 0.000000 0.000000 -1.000000
vn 0.000000 0.000000 -1.000000
vn 0.000000 0.000000 -1.000000
vn 0.000000 0.000000 -1.000000
vn 0.000000 0.000000 -1.000000
vn 0.000000 0.000000 -1.000000
vn 0.000000 0.000000 -1.000000
vn 0.000000 0.000000 -1.000000
vn 0.000000 0.000000 -1.000000
vn 0.000000 0.000000 -1.000000
vn 0.000000 0.000000 -1.000000
vn 0.000000 0.000000 -1.000000
vn 0.000000 0.000000 -1.000000
vn 0.000000 0.000000 -1.000000
vn 0.000000 0.000000 -1.000000
vn 0.000000 0.000000 -1.000000
vn 0.000000 0.000000 -1.000000
vn 0.000000 0.000000 -1.000000
vn 0.000000 0.000000 -1.000000
vn 0.000000 0.000000 -1.000000
vn 0.000000 0.000000 -1.000000
vn 0.000000 0.000000 -1.000000
vn 0.000000 0.000000 -1.000000
vn 0.000000 0.000000 -1.000000
vn 0.000000 0.000000 -1.000000
vn 0.000000 0.000000 -1.000000
vn 0.000000 0.000000 -1.000000
vn 0.000000 0.000000 -1.000000
vn 0.000000 0.000000 -1.000000
vn 0.000000 0.000000 -1.000000
vn 0.000000 0.000000 -1.000000
vn 0.000000 0.000000 -1.000000
vn 0.000000 0.000000 -1.000000
vn 0.000000 0.000000 -1.000000
vn 0.000000 0.000000 -1.000000
vn 0.000000 0.000000 -1.000000
vn 0.000000 0.000000 -1.000000
vn 0.000000 0.000000 -1.000000
vn 0.000000 0.000000 -1.000000
vn 0.000000 0.000000 -1.000000
vn 0.000000 0.000000 -1.000000
vn 0.000000 0.000000 -1.000000
vn 0.000000 0.000000 -1.000000
vn 0.000000 0.000000 -1.000000
vn 0.000000 0.000000 -1.000000
vn 0.000000 0.000000 -1.000000
vn 0.000000 0.000000 -1.000000
vn 0.000000 0.000000 -1.000000
vn 0.000000 0.000000 -1.000000
vn 0.000000 0.000000 -1.000000
vn 0.000000 0.000000 -1.000000
vn 0.000000 0.000000 -1.000000
vn 0.000000 0.000000 -1.000000
vn 0.000000 0.000000 -1.000000
vn 0.000000 0.000000 -1.000000
vn 0.000000 -0.000000 1.000000
vn 0.000000 -0.000000 1.000000
vn 0.000000 -0.000000 1.000000
vn 0.000000 -0.000000 1.000000
vn 0.000000 -0.000000 1.000000
vn 0.000000 -0.000000 1.000000
vn 0.000000 -0.000000 1.000000
vn 0.000000 -0.000000 1.000000
vn 0.000000 -0.000000 1.000000
vn 0.000000 -0.000000 1.000000
vn 0.000000 -0.000000 1.000000
vn 0.000000 -0.000000 1.000000
vn 0.000000 -0.000000 1.000000
vn 0.000000 -0.000000 1.000000
vn 0.000000 -0.000000 1.000000
vn 0.000000 -0.000000 1.000000
vn 0.000000 -0.000000 1.000000
vn 0.000000 -0.000000 1.000000
vn 0.000000 -0.000000 1.000000
vn 0.000000 -0.000000 1.000000
vn 0.000000 -0.000000 1.000000
vn 0.000000 -0.000000 1.000000
vn 0.000000 -0.000000 1.000000
vn 0.000000 -0.000000 1.000000
vn 0.000000 -0.000000 1.000000
vn 0.000000 -0.000000 1.000000
vn 0.000000 -0.000000 1.000000
vn 0.000000 -0.000000 1.000000
vn 0.000000 -0.000000 1.000000
vn 0.000000 -0.000000 1.000000
vn 0.000000 -0.000000 1.000000
vn 0.000000 -0.000000 1.000000
vn 0.000000 -0.000000 1.000000
vn 0.000000 -0.000000 1.000000
vn 0.000000 -0.000000 1.000000
vn 0.000000 -0.000000 1.000000
vn 0.000000 -0.000000 1.000000
vn 0.000000 -0.000000 1.000000
vn 0.000000 -0.000000 1.000000
vn 0.000000 -0.000000 1.000000
vn 0.000000 -0.000000 1.000000
vn 0.000000 -0.000000 1.000000
vn 0.000000 -0.000000 1.000000
vn 0.000000 -0.000000 1.000000
vn 0.000000 -0.000000 1.000000
vn 0.000000 -0.000000 1.000000
vn 0.000000 -0.000000 1.000000
vn 0.000000 -0.000000 1.000000
vn 0.000000 -0.000000 1.000000
vn 0.000000 -0.000000 1.000000
vn 0.000000 -0.000000 1.000000
vn 0.000000 -0.000000 1.000000
vn 0.000000 -0.000000 1.000000
vn 0.000000 -0.000000 1.000000
vn 0.000000 -0.000000 1.000000
vn 0.000000 -0.000000 1.000000
vn 0.000000 -0.000000 1.000000
vn 0.000000 -0.000000 1.000000
vn 0.000000 -0.000000 1.000000
vn 0.000000 -0.000000 1.000000
vn 0.000000 -0.000000 1.000000
vn 0.000000 -0.000000 1.000000
vn 0.000000 -0.000000 1.000000
vn 0.000000 -0.000000 1.000000
s off
g pasted__polySurface232 wall_clock2:IKea_aluminium_clock group28
usemtl pasted__lambert7SG1
f 1/1/1 2/2/2 3/3/3 4/4/4
f 5/5/5 1/6/6 4/7/7 6/8/8
f 7/9/9 5/10/10 6/11/11 8/12/12
f 9/13/13 7/14/14 8/15/15 10/16/16
f 11/17/17 9/18/18 10/19/19 12/20/20
f 13/21/21 11/22/22 12/23/23 14/24/24
f 15/25/25 13/26/26 14/27/27 16/28/28
f 17/29/29 15/30/30 16/31/31 18/32/32
f 19/33/33 17/34/34 18/35/35 20/36/36
f 21/37/37 19/38/38 20/39/39 22/40/40
f 23/41/41 21/42/42 22/43/43 24/44/44
f 25/45/45 23/46/46 24/47/47 26/48/48
f 27/49/49 25/50/50 26/51/51 28/52/52
f 29/53/53 27/54/54 28/55/55 30/56/56
f 31/57/57 29/53/58 30/56/59 32/58/60
f 33/59/61 31/57/62 32/58/63 34/60/64
f 35/61/65 33/62/66 34/63/67 36/64/68
f 37/65/69 35/66/70 36/67/71 38/68/72
f 39/69/73 37/70/74 38/71/75 40/72/76
f 41/73/77 39/74/78 40/75/79 42/76/80
f 43/77/81 41/78/82 42/79/83 44/80/84
f 45/81/85 43/82/86 44/83/87 46/84/88
f 47/85/89 45/86/90 46/87/91 48/88/92
f 49/89/93 47/90/94 48/91/95 50/92/96
f 51/93/97 49/94/98 50/95/99 52/96/100
f 53/97/101 51/98/102 52/99/103 54/100/104
f 55/101/105 53/102/106 54/103/107 56/104/108
f 57/105/109 55/106/110 56/107/111 58/108/112
f 59/109/113 57/110/114 58/111/115 60/112/116
f 61/113/117 59/114/118 60/115/119 62/116/120
f 63/117/121 61/118/122 62/119/123 64/120/124
f 65/121/125 63/122/126 64/123/127 66/124/128
f 67/125/129 65/126/130 66/127/131 68/128/132
f 2/129/133 67/130/134 68/131/135 3/132/136
f 68/133/137 66/134/138 64/135/139 62/136/140
f 56/137/141 54/138/142 52/139/143 50/140/144
f 56/141/145 50/142/146 48/143/147 46/144/148
f 56/145/149 46/146/150 44/147/151 42/148/152
f 58/149/153 56/150/154 42/151/155 60/152/156
f 62/153/157 60/154/158 42/155/159 68/156/160
f 3/157/161 68/158/162 42/159/163 4/160/164
f 6/161/165 4/162/166 42/163/167 8/164/168
f 10/165/169 8/166/170 42/167/171 12/168/172
f 14/169/173 12/170/174 42/171/175 16/172/176
f 18/173/177 16/174/178 42/175/179 20/176/180
f 20/177/181 42/178/182 40/179/183 22/180/184
f 22/181/185 40/182/186 38/183/187 36/184/188
f 24/185/189 22/186/190 36/187/191 34/188/192
f 26/189/193 24/190/194 34/191/195 28/192/196
f 30/56/197 28/193/198 34/194/199 32/58/200
f 29/53/201 31/57/202 33/195/203 27/196/204
f 51/197/205 53/198/206 55/199/207 49/200/208
f 47/201/209 49/202/210 55/203/211 45/204/212
f 43/205/213 45/206/214 55/207/215 41/208/216
f 41/209/217 55/210/218 57/211/219 59/212/220
f 41/213/221 59/214/222 61/215/223 67/216/224
f 63/217/225 65/218/226 67/219/227 61/220/228
f 41/221/229 67/222/230 2/223/231 1/224/232
f 41/225/233 1/226/234 5/227/235 7/228/236
f 41/229/237 7/230/238 9/231/239 11/232/240
f 41/233/241 11/234/242 13/235/243 15/236/244
f 41/237/245 15/238/246 17/239/247 19/240/248
f 39/241/249 41/242/250 19/243/251 21/244/252
f 37/245/253 39/246/254 21/247/255 35/248/256
f 35/249/257 21/250/258 23/251/259 33/252/260
f 33/253/261 23/254/262 25/255/263 27/256/264
