# This file uses centimeters as units for non-parametric coordinates.

mtllib Pared4.mtl
g default
v -10.014172 0.024098 9.969866
v -10.883114 0.024098 9.969866
v -10.883114 0.024098 -9.899812
v -10.014172 0.024098 -9.899812
v -10.014172 6.662047 9.969866
v -10.014172 6.662047 -9.899812
v -10.883114 6.662047 -9.899812
v -10.883114 6.662047 9.969866
vt 553.293579 0.000000
vt 553.293579 29.271200
vt 0.000000 29.271200
vt 0.000000 0.000000
vt 0.000000 0.000000
vt 553.293579 0.000000
vt 553.293579 29.271200
vt 0.000000 29.271200
vt 0.000000 0.000000
vt 553.293579 0.000000
vt 553.293579 223.606903
vt 0.000000 223.606903
vt 29.271200 0.000000
vt 29.271200 223.606903
vt 0.000000 223.606903
vt 0.000000 0.000000
vt 553.293579 0.000000
vt 553.293579 223.606903
vt 0.000000 223.606903
vt 0.000000 0.000000
vt 29.271200 0.000000
vt 29.271200 223.606903
vt 0.000000 223.606903
vn 0.000000 -1.000000 0.000000
vn 0.000000 -1.000000 0.000000
vn 0.000000 -1.000000 0.000000
vn 0.000000 -1.000000 0.000000
vn 0.000000 1.000000 0.000000
vn 0.000000 1.000000 0.000000
vn 0.000000 1.000000 0.000000
vn 0.000000 1.000000 0.000000
vn 1.000000 0.000000 0.000000
vn 1.000000 0.000000 0.000000
vn 1.000000 0.000000 0.000000
vn 1.000000 0.000000 0.000000
vn 0.000000 0.000000 -1.000000
vn 0.000000 0.000000 -1.000000
vn 0.000000 0.000000 -1.000000
vn 0.000000 0.000000 -1.000000
vn -1.000000 0.000000 -0.000000
vn -1.000000 0.000000 -0.000000
vn -1.000000 0.000000 -0.000000
vn -1.000000 0.000000 -0.000000
vn -0.000000 0.000000 1.000000
vn -0.000000 0.000000 1.000000
vn -0.000000 0.000000 1.000000
vn -0.000000 0.000000 1.000000
s 1
g refri_edit6:Box006 pasted__pasted__group11 pasted__group12 group32
usemtl lambert14SG
f 1/1/1 2/2/2 4/4/3
f 4/4/3 2/2/2 3/3/4
s 2
f 5/5/5 6/6/6 8/8/7
f 8/8/7 6/6/6 7/7/8
s 3
usemtl lambert12SG
f 1/9/9 4/10/10 5/12/11
f 5/12/11 4/10/10 6/11/12
s 4
usemtl lambert14SG
f 4/4/13 3/13/14 6/15/15
f 6/15/15 3/13/14 7/14/16
s 5
f 3/16/17 2/17/18 7/19/19
f 7/19/19 2/17/18 8/18/20
s 6
f 2/20/21 1/21/22 8/23/23
f 8/23/23 1/21/22 5/22/24
g default
v -10.014172 0.024098 9.969866
v -10.883114 0.024098 9.969866
v -10.883114 0.024098 -9.899812
v -10.014172 0.024098 -9.899812
v -10.014172 6.662047 9.969866
v -10.014172 6.662047 -9.899812
v -10.883114 6.662047 -9.899812
v -10.883114 6.662047 9.969866
vt 553.293579 0.000000
vt 553.293579 29.271200
vt 0.000000 29.271200
vt 0.000000 0.000000
vt 0.000000 0.000000
vt 553.293579 0.000000
vt 553.293579 29.271200
vt 0.000000 29.271200
vt 0.000000 0.000000
vt 553.293579 0.000000
vt 553.293579 223.606903
vt 0.000000 223.606903
vt 29.271200 0.000000
vt 29.271200 223.606903
vt 0.000000 223.606903
vt 0.000000 0.000000
vt 553.293579 0.000000
vt 553.293579 223.606903
vt 0.000000 223.606903
vt 0.000000 0.000000
vt 29.271200 0.000000
vt 29.271200 223.606903
vt 0.000000 223.606903
vn 0.000000 -1.000000 0.000000
vn 0.000000 -1.000000 0.000000
vn 0.000000 -1.000000 0.000000
vn 0.000000 -1.000000 0.000000
vn 0.000000 1.000000 0.000000
vn 0.000000 1.000000 0.000000
vn 0.000000 1.000000 0.000000
vn 0.000000 1.000000 0.000000
vn 1.000000 0.000000 0.000000
vn 1.000000 0.000000 0.000000
vn 1.000000 0.000000 0.000000
vn 1.000000 0.000000 0.000000
vn 0.000000 0.000000 -1.000000
vn 0.000000 0.000000 -1.000000
vn 0.000000 0.000000 -1.000000
vn 0.000000 0.000000 -1.000000
vn -1.000000 0.000000 -0.000000
vn -1.000000 0.000000 -0.000000
vn -1.000000 0.000000 -0.000000
vn -1.000000 0.000000 -0.000000
vn -0.000000 0.000000 1.000000
vn -0.000000 0.000000 1.000000
vn -0.000000 0.000000 1.000000
vn -0.000000 0.000000 1.000000
s 1
g refri_edit6:Box006 pasted__pasted__group11 pasted__group12 group32
f 9/24/25 10/25/26 12/27/27
f 12/27/27 10/25/26 11/26/28
s 2
f 13/28/29 14/29/30 16/31/31
f 16/31/31 14/29/30 15/30/32
s 3
f 9/32/33 12/33/34 13/35/35
f 13/35/35 12/33/34 14/34/36
s 4
f 12/27/37 11/36/38 14/38/39
f 14/38/39 11/36/38 15/37/40
s 5
f 11/39/41 10/40/42 15/42/43
f 15/42/43 10/40/42 16/41/44
s 6
f 10/43/45 9/44/46 16/46/47
f 16/46/47 9/44/46 13/45/48
