# This file uses centimeters as units for non-parametric coordinates.

mtllib Pared1B.mtl
g default
v 0.457661 0.024098 9.969866
v -0.411281 0.024098 9.969866
v -0.411281 0.024098 -9.899812
v 0.457661 0.024098 -9.899812
v 0.457661 6.662047 9.969866
v 0.457661 6.662047 -9.899812
v -0.411281 6.662047 -9.899812
v -0.411281 6.662047 9.969866
vt 553.293579 0.000000
vt 553.293579 29.271200
vt 0.000000 29.271200
vt 0.000000 0.000000
vt 0.000000 0.000000
vt 553.293579 0.000000
vt 553.293579 29.271200
vt 0.000000 29.271200
vt 0.000000 0.000000
vt 553.293579 0.000000
vt 553.293579 223.606903
vt 0.000000 223.606903
vt 29.271200 0.000000
vt 29.271200 223.606903
vt 0.000000 223.606903
vt 0.000000 0.000000
vt 553.293579 0.000000
vt 553.293579 223.606903
vt 0.000000 223.606903
vt 0.000000 0.000000
vt 29.271200 0.000000
vt 29.271200 223.606903
vt 0.000000 223.606903
vn 0.000000 -1.000000 0.000000
vn 0.000000 -1.000000 0.000000
vn 0.000000 -1.000000 0.000000
vn 0.000000 -1.000000 0.000000
vn 0.000000 1.000000 0.000000
vn 0.000000 1.000000 0.000000
vn 0.000000 1.000000 0.000000
vn 0.000000 1.000000 0.000000
vn 1.000000 0.000000 0.000000
vn 1.000000 0.000000 0.000000
vn 1.000000 0.000000 0.000000
vn 1.000000 0.000000 0.000000
vn 0.000000 0.000000 -1.000000
vn 0.000000 0.000000 -1.000000
vn 0.000000 0.000000 -1.000000
vn 0.000000 0.000000 -1.000000
vn -1.000000 0.000000 -0.000000
vn -1.000000 0.000000 -0.000000
vn -1.000000 0.000000 -0.000000
vn -1.000000 0.000000 -0.000000
vn -0.000000 0.000000 1.000000
vn -0.000000 0.000000 1.000000
vn -0.000000 0.000000 1.000000
vn -0.000000 0.000000 1.000000
s 1
g refri_edit63:Box006 pasted__pasted__pasted__group11 pasted__pasted__group12 pasted__group32 group26
usemtl pasted__lambert14SG19
f 1/1/1 2/2/2 4/4/3
f 4/4/3 2/2/2 3/3/4
s 2
f 5/5/5 6/6/6 8/8/7
f 8/8/7 6/6/6 7/7/8
s 3
usemtl pasted__lambert12SG19
f 1/9/9 4/10/10 5/12/11
f 5/12/11 4/10/10 6/11/12
s 4
usemtl pasted__lambert14SG19
f 4/4/13 3/13/14 6/15/15
f 6/15/15 3/13/14 7/14/16
s 5
f 3/16/17 2/17/18 7/19/19
f 7/19/19 2/17/18 8/18/20
s 6
f 2/20/21 1/21/22 8/23/23
f 8/23/23 1/21/22 5/22/24
