# This file uses centimeters as units for non-parametric coordinates.

mtllib Pared4.mtl
g default
v 0.500240 0.024098 9.969866
v -0.368702 0.024098 9.969866
v -0.368702 0.024098 -9.899812
v 0.500240 0.024098 -9.899812
v 0.500240 6.662047 9.969866
v 0.500240 6.662047 -9.899812
v -0.368702 6.662047 -9.899812
v -0.368702 6.662047 9.969866
vt 553.293579 0.000000
vt 553.293579 29.271200
vt 0.000000 29.271200
vt 0.000000 0.000000
vt 0.000000 0.000000
vt 553.293579 0.000000
vt 553.293579 29.271200
vt 0.000000 29.271200
vt 0.000000 0.000000
vt 553.293579 0.000000
vt 553.293579 223.606903
vt 0.000000 223.606903
vt 29.271200 0.000000
vt 29.271200 223.606903
vt 0.000000 223.606903
vt 0.000000 0.000000
vt 553.293579 0.000000
vt 553.293579 223.606903
vt 0.000000 223.606903
vt 0.000000 0.000000
vt 29.271200 0.000000
vt 29.271200 223.606903
vt 0.000000 223.606903
vn 0.000000 -1.000000 0.000000
vn 0.000000 -1.000000 0.000000
vn 0.000000 -1.000000 0.000000
vn 0.000000 -1.000000 0.000000
vn 0.000000 1.000000 0.000000
vn 0.000000 1.000000 0.000000
vn 0.000000 1.000000 0.000000
vn 0.000000 1.000000 0.000000
vn 1.000000 0.000000 0.000000
vn 1.000000 0.000000 0.000000
vn 1.000000 0.000000 0.000000
vn 1.000000 0.000000 0.000000
vn 0.000000 0.000000 -1.000000
vn 0.000000 0.000000 -1.000000
vn 0.000000 0.000000 -1.000000
vn 0.000000 0.000000 -1.000000
vn -1.000000 0.000000 -0.000000
vn -1.000000 0.000000 -0.000000
vn -1.000000 0.000000 -0.000000
vn -1.000000 0.000000 -0.000000
vn -0.000000 0.000000 1.000000
vn -0.000000 0.000000 1.000000
vn -0.000000 0.000000 1.000000
vn -0.000000 0.000000 1.000000
s off
g refri_edit2:Box006 pasted__pasted__group11 pasted__group12 group8
usemtl pasted__lambert12SG8
f 1/1/1 2/2/2 3/3/3 4/4/4
f 5/5/5 6/6/6 7/7/7 8/8/8
f 1/9/9 4/10/10 6/11/11 5/12/12
f 4/4/13 3/13/14 7/14/15 6/15/16
usemtl pasted__lambert14SG8
f 3/16/17 2/17/18 8/18/19 7/19/20
usemtl pasted__lambert12SG8
f 2/20/21 1/21/22 5/22/23 8/23/24
