# This file uses centimeters as units for non-parametric coordinates.

mtllib Piso.mtl
g default
v -10.910858 0.000000 5.019377
v -10.910858 0.000000 9.986315
v -5.470555 0.000000 9.986315
v -5.470555 0.000000 5.019377
v -0.030255 0.000000 9.986315
v -0.030255 0.000000 5.019377
v 5.410047 0.000000 9.986315
v 5.410047 0.000000 5.019377
v 10.850348 0.000000 9.986315
v 10.850348 0.000000 5.019377
v -10.910858 0.000000 0.052439
v -5.470555 0.000000 0.052439
v -0.030255 0.000000 0.052439
v 5.410047 0.000000 0.052439
v 10.850348 0.000000 0.052439
v -10.910858 0.000000 -4.914499
v -5.470555 0.000000 -4.914499
v -0.030255 0.000000 -4.914499
v 5.410047 0.000000 -4.914499
v 10.850348 0.000000 -4.914499
v -10.910858 0.000000 -9.881437
v -5.470555 0.000000 -9.881437
v -0.030255 0.000000 -9.881437
v 5.410047 0.000000 -9.881438
v 10.850348 0.000000 -9.881437
vt 0.000000 554.855896
vt 0.000000 0.000000
vt 551.387085 0.000000
vt 551.387085 554.855896
vt 1102.774170 0.000000
vt 1102.774170 554.855896
vt 1654.161255 0.000000
vt 1654.161255 554.855896
vt 2205.548340 0.000000
vt 2205.548340 554.855896
vt 0.000000 1109.711792
vt 551.387085 1109.711792
vt 1102.774170 1109.711792
vt 1654.161255 1109.711792
vt 2205.548340 1109.711792
vt 0.000000 1664.567627
vt 551.387085 1664.567627
vt 1102.774170 1664.567627
vt 1654.161255 1664.567627
vt 2205.548340 1664.567627
vt 0.000000 2219.423584
vt 551.387085 2219.423584
vt 1102.774170 2219.423584
vt 1654.161255 2219.423584
vt 2205.548340 2219.423584
vn 0.000000 1.000000 -0.000000
vn 0.000000 1.000000 -0.000000
vn 0.000000 1.000000 -0.000000
vn 0.000000 1.000000 -0.000000
vn 0.000000 1.000000 0.000000
vn 0.000000 1.000000 0.000000
vn 0.000000 1.000000 0.000000
vn 0.000000 1.000000 0.000000
vn 0.000000 1.000000 0.000000
vn 0.000000 1.000000 0.000000
vn 0.000000 1.000000 0.000000
vn 0.000000 1.000000 0.000000
vn 0.000000 1.000000 0.000000
vn 0.000000 1.000000 0.000000
vn 0.000000 1.000000 0.000000
vn 0.000000 1.000000 0.000000
vn 0.000000 1.000000 0.000000
vn 0.000000 1.000000 0.000000
vn 0.000000 1.000000 0.000000
vn 0.000000 1.000000 0.000000
vn 0.000000 1.000000 0.000000
vn 0.000000 1.000000 0.000000
vn 0.000000 1.000000 0.000000
vn 0.000000 1.000000 0.000000
vn 0.000000 1.000000 0.000000
vn 0.000000 1.000000 0.000000
vn 0.000000 1.000000 0.000000
vn 0.000000 1.000000 0.000000
vn 0.000000 1.000000 0.000000
vn 0.000000 1.000000 0.000000
vn 0.000000 1.000000 0.000000
vn 0.000000 1.000000 0.000000
vn 0.000000 1.000000 0.000000
vn 0.000000 1.000000 0.000000
vn 0.000000 1.000000 0.000000
vn 0.000000 1.000000 0.000000
vn 0.000000 1.000000 0.000000
vn 0.000000 1.000000 0.000000
vn 0.000000 1.000000 0.000000
vn 0.000000 1.000000 0.000000
vn 0.000000 1.000000 0.000000
vn 0.000000 1.000000 0.000000
vn 0.000000 1.000000 0.000000
vn 0.000000 1.000000 0.000000
vn 0.000000 1.000000 0.000000
vn 0.000000 1.000000 0.000000
vn 0.000000 1.000000 0.000000
vn 0.000000 1.000000 0.000000
vn 0.000000 1.000000 0.000000
vn 0.000000 1.000000 0.000000
vn 0.000000 1.000000 0.000000
vn 0.000000 1.000000 0.000000
vn 0.000000 1.000000 0.000000
vn 0.000000 1.000000 0.000000
vn 0.000000 1.000000 0.000000
vn 0.000000 1.000000 0.000000
vn 0.000000 1.000000 0.000000
vn 0.000000 1.000000 0.000000
vn 0.000000 1.000000 0.000000
vn 0.000000 1.000000 0.000000
vn 0.000000 1.000000 0.000000
vn 0.000000 1.000000 0.000000
vn 0.000000 1.000000 0.000000
vn 0.000000 1.000000 0.000000
s off
g pasted__polySurface498 pasted__polySurface483 group8
usemtl pasted__lambert10SG5
f 1/1/1 2/2/2 3/3/3 4/4/4
usemtl pasted__lambert11SG6
f 4/4/5 3/3/6 5/5/7 6/6/8
usemtl pasted__lambert10SG5
f 6/6/9 5/5/10 7/7/11 8/8/12
usemtl pasted__lambert11SG6
f 8/8/13 7/7/14 9/9/15 10/10/16
f 11/11/17 1/1/18 4/4/19 12/12/20
usemtl pasted__lambert10SG5
f 12/12/21 4/4/22 6/6/23 13/13/24
usemtl pasted__lambert11SG6
f 13/13/25 6/6/26 8/8/27 14/14/28
usemtl pasted__lambert10SG5
f 14/14/29 8/8/30 10/10/31 15/15/32
f 16/16/33 11/11/34 12/12/35 17/17/36
usemtl pasted__lambert11SG6
f 17/17/37 12/12/38 13/13/39 18/18/40
usemtl pasted__lambert10SG5
f 18/18/41 13/13/42 14/14/43 19/19/44
usemtl pasted__lambert11SG6
f 19/19/45 14/14/46 15/15/47 20/20/48
f 21/21/49 16/16/50 17/17/51 22/22/52
usemtl pasted__lambert10SG5
f 22/22/53 17/17/54 18/18/55 23/23/56
usemtl pasted__lambert11SG6
f 23/23/57 18/18/58 19/19/59 24/24/60
usemtl pasted__lambert10SG5
f 24/24/61 19/19/62 20/20/63 25/25/64
