# This file uses centimeters as units for non-parametric coordinates.

mtllib manecilla.mtl
g default
v -0.012308 -0.026336 0.001700
v -0.015831 -0.024875 0.001700
v -0.015831 -0.024875 -0.003293
v -0.012308 -0.026336 -0.003293
v -0.008604 -0.027213 0.001700
v -0.008604 -0.027213 -0.003293
v -0.004806 -0.027479 0.001700
v -0.004806 -0.027479 -0.003293
v -0.000973 -0.027110 0.001700
v -0.000973 -0.027110 -0.003293
v 0.002808 -0.026087 0.001700
v 0.002808 -0.026087 -0.003293
v 0.006452 -0.024377 0.001700
v 0.006452 -0.024377 -0.003293
v 0.009743 -0.022082 0.001700
v 0.009743 -0.022082 -0.003293
v 0.012519 -0.019324 0.001700
v 0.012519 -0.019324 -0.003293
v 0.014770 -0.016179 0.001700
v 0.014770 -0.016179 -0.003293
v 0.016463 -0.012750 0.001700
v 0.016463 -0.012750 -0.003293
v 0.017581 -0.009098 0.001700
v 0.017581 -0.009098 -0.003293
v 0.018105 -0.005325 0.001700
v 0.018105 -0.005325 -0.003293
v 0.229393 0.131408 0.001700
v 0.018001 -0.001501 -0.003293
v 0.447746 0.252282 -0.003293
v 0.443071 0.260386 -0.003293
v 0.008755 0.014466 -0.003293
v 0.005498 0.016485 0.001700
v 0.005498 0.016485 -0.003293
v 0.001966 0.017938 0.001700
v 0.001966 0.017938 -0.003293
v -0.001747 0.018805 0.001700
v -0.001747 0.018805 -0.003293
v -0.005562 0.019063 0.001700
v -0.005562 0.019063 -0.003293
v -0.009403 0.018685 0.001700
v -0.009403 0.018685 -0.003293
v -0.013193 0.017654 0.001700
v -0.013193 0.017654 -0.003293
v -0.016837 0.015952 0.001700
v -0.016837 0.015952 -0.003293
v -0.020136 0.013649 0.001700
v -0.020136 0.013649 -0.003293
v -0.022912 0.010882 0.001700
v -0.022912 0.010882 -0.003293
v -0.025155 0.007746 0.001700
v -0.025155 0.007746 -0.003293
v -0.026831 0.004317 0.001700
v -0.026831 0.004317 -0.003293
v -0.027922 0.000673 0.001700
v -0.027922 0.000673 -0.003293
v -0.028421 -0.003108 0.001700
v -0.028421 -0.003108 -0.003293
v -0.028292 -0.006949 0.001700
v -0.028292 -0.006949 -0.003293
v -0.077558 -0.035428 0.001700
v -0.077558 -0.035428 -0.003293
v -0.068905 -0.051567 0.001700
v -0.068905 -0.051567 -0.003293
v -0.019080 -0.022847 0.001700
v -0.019080 -0.022847 -0.003293
vt 0.245900 -1.533300
vt 0.198200 -1.569800
vt 0.198200 -1.569800
vt 0.245900 -1.533300
vt 0.287100 -1.489700
vt 0.245900 -1.533300
vt 0.245900 -1.533300
vt 0.287100 -1.489700
vt 0.320700 -1.439800
vt 0.287100 -1.489700
vt 0.287100 -1.489700
vt 0.320700 -1.439800
vt 0.345900 -1.384600
vt 0.320700 -1.439800
vt 0.320700 -1.439800
vt 0.345900 -1.384600
vt 0.361700 -1.324900
vt 0.345900 -1.384600
vt 0.345900 -1.384600
vt 0.361700 -1.324900
vt 0.367100 -1.261700
vt 0.361700 -1.324900
vt 0.361700 -1.324900
vt 0.367100 -1.261700
vt 0.361700 -1.198700
vt 0.367100 -1.261700
vt 0.367100 -1.261700
vt 0.361700 -1.198700
vt 0.345900 -1.139000
vt 0.361700 -1.198700
vt 0.361700 -1.198700
vt 0.345900 -1.139000
vt 0.320800 -1.083500
vt 0.345900 -1.139000
vt 0.345900 -1.139000
vt 0.320800 -1.083500
vt 0.287200 -1.033300
vt 0.320800 -1.083500
vt 0.320800 -1.083500
vt 0.287200 -1.033300
vt 0.246300 -0.989300
vt 0.287200 -1.033300
vt 0.287200 -1.033300
vt 0.246300 -0.989300
vt 0.198800 -0.952400
vt 0.246300 -0.989300
vt 0.246300 -0.989300
vt 0.198800 -0.952400
vt 0.145800 -0.923700
vt 0.198800 -0.952400
vt 0.198800 -0.952400
vt 0.145800 -0.923700
vt -0.001583 1.698933
vt 0.145800 -0.923700
vt 0.068300 6.944500
vt -0.079200 6.944500
vt -0.145100 -0.924000
vt -0.198400 -0.952600
vt -0.145100 -0.924000
vt -0.145100 -0.924000
vt -0.198400 -0.952600
vt -0.246000 -0.989300
vt -0.198400 -0.952600
vt -0.198400 -0.952600
vt -0.246000 -0.989300
vt -0.287100 -1.033200
vt -0.246000 -0.989300
vt -0.246000 -0.989300
vt -0.287100 -1.033200
vt -0.320700 -1.083300
vt -0.287100 -1.033200
vt -0.287100 -1.033200
vt -0.320700 -1.083300
vt -0.345900 -1.138700
vt -0.320700 -1.083300
vt -0.320700 -1.083300
vt -0.345900 -1.138700
vt -0.361700 -1.198500
vt -0.345900 -1.138700
vt -0.345900 -1.138700
vt -0.361700 -1.198500
vt -0.367100 -1.261700
vt -0.361700 -1.198500
vt -0.361700 -1.198500
vt -0.367100 -1.261700
vt -0.361700 -1.325000
vt -0.367100 -1.261700
vt -0.367100 -1.261700
vt -0.361700 -1.325000
vt -0.345900 -1.384700
vt -0.361700 -1.325000
vt -0.361700 -1.325000
vt -0.345900 -1.384700
vt -0.320700 -1.440000
vt -0.345900 -1.384700
vt -0.345900 -1.384700
vt -0.320700 -1.440000
vt -0.287100 -1.489900
vt -0.320700 -1.440000
vt -0.320700 -1.440000
vt -0.287100 -1.489900
vt -0.245900 -1.533600
vt -0.287100 -1.489900
vt -0.287100 -1.489900
vt -0.245900 -1.533600
vt -0.198200 -1.570100
vt -0.245900 -1.533600
vt -0.245900 -1.533600
vt -0.198200 -1.570100
vt -0.144800 -1.598600
vt -0.198200 -1.570100
vt -0.198200 -1.570100
vt -0.144800 -1.598600
vt -0.144300 -2.495800
vt -0.144800 -1.598600
vt -0.144800 -1.598600
vt -0.144300 -2.495800
vt 0.144300 -2.504900
vt -0.144300 -2.495800
vt -0.144300 -2.495800
vt 0.144300 -2.504900
vt 0.144800 -1.598300
vt 0.144300 -2.504900
vt 0.144300 -2.504900
vt 0.144800 -1.598300
vt 0.198200 -1.569800
vt 0.144800 -1.598300
vt 0.144800 -1.598300
vt 0.198200 -1.569800
vt 0.144800 -1.598300
vt 0.144300 -2.504900
vt -0.144300 -2.495800
vt -0.144800 -1.598600
vt -0.287100 -1.489900
vt -0.320700 -1.440000
vt -0.345900 -1.384700
vt -0.361700 -1.325000
vt -0.287100 -1.489900
vt -0.361700 -1.325000
vt -0.367100 -1.261700
vt -0.361700 -1.198500
vt -0.287100 -1.489900
vt -0.361700 -1.198500
vt -0.345900 -1.138700
vt -0.320700 -1.083300
vt -0.245900 -1.533600
vt -0.287100 -1.489900
vt -0.320700 -1.083300
vt -0.198200 -1.570100
vt -0.144800 -1.598600
vt -0.198200 -1.570100
vt -0.320700 -1.083300
vt 0.144800 -1.598300
vt 0.198200 -1.569800
vt 0.144800 -1.598300
vt -0.320700 -1.083300
vt 0.245900 -1.533300
vt 0.287100 -1.489700
vt 0.245900 -1.533300
vt -0.320700 -1.083300
vt 0.320700 -1.439800
vt 0.345900 -1.384600
vt 0.320700 -1.439800
vt -0.320700 -1.083300
vt 0.361700 -1.324900
vt 0.367100 -1.261700
vt 0.361700 -1.324900
vt -0.320700 -1.083300
vt 0.361700 -1.198700
vt 0.345900 -1.139000
vt 0.361700 -1.198700
vt -0.320700 -1.083300
vt 0.320800 -1.083500
vt 0.320800 -1.083500
vt -0.320700 -1.083300
vt -0.287100 -1.033200
vt 0.287200 -1.033300
vt 0.287200 -1.033300
vt -0.287100 -1.033200
vt -0.246000 -0.989300
vt -0.198400 -0.952600
vt 0.246300 -0.989300
vt 0.287200 -1.033300
vt -0.198400 -0.952600
vt -0.145100 -0.924000
vt 0.198800 -0.952400
vt 0.246300 -0.989300
vt -0.145100 -0.924000
vt 0.145800 -0.923700
vt 0.145800 -0.923700
vt -0.145100 -0.924000
vt -0.345900 -1.384700
vt -0.320700 -1.440000
vt -0.287100 -1.489900
vt -0.361700 -1.325000
vt -0.367100 -1.261700
vt -0.361700 -1.325000
vt -0.287100 -1.489900
vt -0.361700 -1.198500
vt -0.345900 -1.138700
vt -0.361700 -1.198500
vt -0.287100 -1.489900
vt -0.320700 -1.083300
vt -0.320700 -1.083300
vt -0.287100 -1.489900
vt -0.245900 -1.533600
vt -0.198200 -1.570100
vt -0.320700 -1.083300
vt -0.198200 -1.570100
vt -0.144800 -1.598600
vt 0.144800 -1.598300
vt -0.144300 -2.495800
vt 0.144300 -2.504900
vt 0.144800 -1.598300
vt -0.144800 -1.598600
vt -0.320700 -1.083300
vt 0.144800 -1.598300
vt 0.198200 -1.569800
vt 0.245900 -1.533300
vt -0.320700 -1.083300
vt 0.245900 -1.533300
vt 0.287100 -1.489700
vt 0.320700 -1.439800
vt -0.320700 -1.083300
vt 0.320700 -1.439800
vt 0.345900 -1.384600
vt 0.361700 -1.324900
vt -0.320700 -1.083300
vt 0.361700 -1.324900
vt 0.367100 -1.261700
vt 0.361700 -1.198700
vt -0.320700 -1.083300
vt 0.361700 -1.198700
vt 0.345900 -1.139000
vt 0.320800 -1.083500
vt -0.287100 -1.033200
vt -0.320700 -1.083300
vt 0.320800 -1.083500
vt 0.287200 -1.033300
vt -0.246000 -0.989300
vt -0.287100 -1.033200
vt 0.287200 -1.033300
vt -0.198400 -0.952600
vt -0.198400 -0.952600
vt 0.287200 -1.033300
vt 0.246300 -0.989300
vt -0.145100 -0.924000
vt 0.000350 -0.923850
vt 0.246300 -0.989300
vt 0.198800 -0.952400
vn -0.308297 -0.951290 0.000000
vn -0.457901 -0.889003 0.000000
vn -0.457901 -0.889003 0.000000
vn -0.308297 -0.951290 0.000000
vn -0.150501 -0.988610 0.000000
vn -0.308297 -0.951290 0.000000
vn -0.308297 -0.951290 0.000000
vn -0.150501 -0.988610 0.000000
vn 0.013000 -0.999915 0.000000
vn -0.150501 -0.988610 0.000000
vn -0.150501 -0.988610 0.000000
vn 0.013000 -0.999915 0.000000
vn 0.179299 -0.983795 0.000000
vn 0.013000 -0.999915 0.000000
vn 0.013000 -0.999915 0.000000
vn 0.179299 -0.983795 0.000000
vn 0.343814 -0.939038 0.000000
vn 0.179299 -0.983795 0.000000
vn 0.179299 -0.983795 0.000000
vn 0.343814 -0.939038 0.000000
vn 0.500086 -0.865976 0.000000
vn 0.343814 -0.939038 0.000000
vn 0.343814 -0.939038 0.000000
vn 0.500086 -0.865976 0.000000
vn 0.641187 -0.767385 0.000000
vn 0.500086 -0.865976 0.000000
vn 0.500086 -0.865976 0.000000
vn 0.641187 -0.767385 0.000000
vn 0.761483 -0.648185 0.000000
vn 0.641187 -0.767385 0.000000
vn 0.641187 -0.767385 0.000000
vn 0.761483 -0.648185 0.000000
vn 0.857722 -0.514113 0.000000
vn 0.761483 -0.648185 0.000000
vn 0.761483 -0.648185 0.000000
vn 0.857722 -0.514113 0.000000
vn 0.929391 -0.369096 0.000000
vn 0.857722 -0.514113 0.000000
vn 0.857722 -0.514113 0.000000
vn 0.929391 -0.369096 0.000000
vn 0.976504 -0.215501 0.000000
vn 0.929391 -0.369096 0.000000
vn 0.929391 -0.369096 0.000000
vn 0.976504 -0.215501 0.000000
vn 0.998481 -0.055099 0.000000
vn 0.976504 -0.215501 0.000000
vn 0.976504 -0.215501 0.000000
vn 0.998481 -0.055099 0.000000
vn 0.999646 0.026601 0.000000
vn 0.998481 -0.055099 0.000000
vn 0.998481 -0.055099 0.000000
vn 0.999646 0.026601 0.000000
vn 0.508483 -0.861072 0.000000
vn 0.508483 -0.861072 0.000000
vn 0.508483 -0.861072 0.000000
vn 0.866019 0.500011 0.000000
vn 0.866019 0.500011 0.000000
vn 0.866019 0.500011 0.000000
vn -0.492700 0.870199 0.000000
vn -0.492700 0.870199 0.000000
vn -0.492700 0.870199 0.000000
vn 0.455315 0.890330 0.000000
vn 0.526606 0.850110 0.000000
vn 0.526606 0.850110 0.000000
vn 0.455315 0.890330 0.000000
vn 0.305015 0.952347 0.000000
vn 0.455315 0.890330 0.000000
vn 0.455315 0.890330 0.000000
vn 0.305015 0.952347 0.000000
vn 0.147494 0.989063 0.000000
vn 0.305015 0.952347 0.000000
vn 0.305015 0.952347 0.000000
vn 0.147494 0.989063 0.000000
vn -0.015100 0.999886 0.000000
vn 0.147494 0.989063 0.000000
vn 0.147494 0.989063 0.000000
vn -0.015100 0.999886 0.000000
vn -0.180302 0.983611 0.000000
vn -0.015100 0.999886 0.000000
vn -0.015100 0.999886 0.000000
vn -0.180302 0.983611 0.000000
vn -0.344111 0.938929 0.000000
vn -0.180302 0.983611 0.000000
vn -0.180302 0.983611 0.000000
vn -0.344111 0.938929 0.000000
vn -0.500011 0.866019 0.000000
vn -0.344111 0.938929 0.000000
vn -0.344111 0.938929 0.000000
vn -0.500011 0.866019 0.000000
vn -0.641187 0.767385 0.000000
vn -0.500011 0.866019 0.000000
vn -0.500011 0.866019 0.000000
vn -0.641187 0.767385 0.000000
vn -0.762129 0.647425 0.000000
vn -0.641187 0.767385 0.000000
vn -0.641187 0.767385 0.000000
vn -0.762129 0.647425 0.000000
vn -0.859218 0.511610 0.000000
vn -0.762129 0.647425 0.000000
vn -0.762129 0.647425 0.000000
vn -0.859218 0.511610 0.000000
vn -0.931203 0.364501 0.000000
vn -0.859218 0.511610 0.000000
vn -0.859218 0.511610 0.000000
vn -0.931203 0.364501 0.000000
vn -0.977894 0.209099 0.000000
vn -0.931203 0.364501 0.000000
vn -0.931203 0.364501 0.000000
vn -0.977894 0.209099 0.000000
vn -0.998847 0.048002 0.000000
vn -0.977894 0.209099 0.000000
vn -0.977894 0.209099 0.000000
vn -0.998847 0.048002 0.000000
vn -0.999435 -0.033601 0.000000
vn -0.998847 0.048002 0.000000
vn -0.998847 0.048002 0.000000
vn -0.999435 -0.033601 0.000000
vn -0.500516 0.865727 0.000000
vn -0.500516 0.865727 0.000000
vn -0.500516 0.865727 0.000000
vn -0.500516 0.865727 0.000000
vn -0.881282 -0.472590 0.000000
vn -0.881282 -0.472590 0.000000
vn -0.881282 -0.472590 0.000000
vn -0.881282 -0.472590 0.000000
vn 0.499431 -0.866354 0.000000
vn 0.499431 -0.866354 0.000000
vn 0.499431 -0.866354 0.000000
vn 0.499431 -0.866354 0.000000
vn -0.457901 -0.889003 0.000000
vn -0.528632 -0.848851 0.000000
vn -0.528632 -0.848851 0.000000
vn -0.457901 -0.889003 0.000000
vn 0.000000 0.000000 -1.000000
vn 0.000000 0.000000 -1.000000
vn 0.000000 0.000000 -1.000000
vn 0.000000 0.000000 -1.000000
vn 0.000000 0.000000 -1.000000
vn 0.000000 0.000000 -1.000000
vn 0.000000 0.000000 -1.000000
vn 0.000000 0.000000 -1.000000
vn 0.000000 0.000000 -1.000000
vn 0.000000 0.000000 -1.000000
vn 0.000000 0.000000 -1.000000
vn 0.000000 0.000000 -1.000000
vn 0.000000 0.000000 -1.000000
vn 0.000000 0.000000 -1.000000
vn 0.000000 0.000000 -1.000000
vn 0.000000 0.000000 -1.000000
vn 0.000000 0.000000 -1.000000
vn 0.000000 0.000000 -1.000000
vn 0.000000 0.000000 -1.000000
vn 0.000000 0.000000 -1.000000
vn 0.000000 0.000000 -1.000000
vn 0.000000 0.000000 -1.000000
vn 0.000000 0.000000 -1.000000
vn 0.000000 0.000000 -1.000000
vn 0.000000 0.000000 -1.000000
vn 0.000000 0.000000 -1.000000
vn 0.000000 0.000000 -1.000000
vn 0.000000 0.000000 -1.000000
vn 0.000000 0.000000 -1.000000
vn 0.000000 0.000000 -1.000000
vn 0.000000 0.000000 -1.000000
vn 0.000000 0.000000 -1.000000
vn 0.000000 0.000000 -1.000000
vn 0.000000 0.000000 -1.000000
vn 0.000000 0.000000 -1.000000
vn 0.000000 0.000000 -1.000000
vn 0.000000 0.000000 -1.000000
vn 0.000000 0.000000 -1.000000
vn 0.000000 0.000000 -1.000000
vn 0.000000 0.000000 -1.000000
vn 0.000000 0.000000 -1.000000
vn 0.000000 0.000000 -1.000000
vn 0.000000 0.000000 -1.000000
vn 0.000000 0.000000 -1.000000
vn 0.000000 0.000000 -1.000000
vn 0.000000 0.000000 -1.000000
vn 0.000000 0.000000 -1.000000
vn 0.000000 0.000000 -1.000000
vn 0.000000 0.000000 -1.000000
vn 0.000000 0.000000 -1.000000
vn 0.000000 0.000000 -1.000000
vn 0.000000 0.000000 -1.000000
vn 0.000000 0.000000 -1.000000
vn 0.000000 0.000000 -1.000000
vn 0.000000 0.000000 -1.000000
vn 0.000000 0.000000 -1.000000
vn 0.000000 0.000000 -1.000000
vn 0.000000 0.000000 -1.000000
vn 0.000000 0.000000 -1.000000
vn 0.000000 0.000000 -1.000000
vn 0.000000 0.000000 -1.000000
vn 0.000000 0.000000 -1.000000
vn 0.000000 0.000000 -1.000000
vn 0.000000 0.000000 -1.000000
vn 0.000000 -0.000000 1.000000
vn 0.000000 -0.000000 1.000000
vn 0.000000 -0.000000 1.000000
vn 0.000000 -0.000000 1.000000
vn 0.000000 -0.000000 1.000000
vn 0.000000 -0.000000 1.000000
vn 0.000000 -0.000000 1.000000
vn 0.000000 -0.000000 1.000000
vn 0.000000 -0.000000 1.000000
vn 0.000000 -0.000000 1.000000
vn 0.000000 -0.000000 1.000000
vn 0.000000 -0.000000 1.000000
vn 0.000000 -0.000000 1.000000
vn 0.000000 -0.000000 1.000000
vn 0.000000 -0.000000 1.000000
vn 0.000000 -0.000000 1.000000
vn 0.000000 -0.000000 1.000000
vn 0.000000 -0.000000 1.000000
vn 0.000000 -0.000000 1.000000
vn 0.000000 -0.000000 1.000000
vn 0.000000 -0.000000 1.000000
vn 0.000000 -0.000000 1.000000
vn 0.000000 -0.000000 1.000000
vn 0.000000 -0.000000 1.000000
vn 0.000000 -0.000000 1.000000
vn 0.000000 -0.000000 1.000000
vn 0.000000 -0.000000 1.000000
vn 0.000000 -0.000000 1.000000
vn 0.000000 -0.000000 1.000000
vn 0.000000 -0.000000 1.000000
vn 0.000000 -0.000000 1.000000
vn 0.000000 -0.000000 1.000000
vn 0.000000 -0.000000 1.000000
vn 0.000000 -0.000000 1.000000
vn 0.000000 -0.000000 1.000000
vn 0.000000 -0.000000 1.000000
vn 0.000000 -0.000000 1.000000
vn 0.000000 -0.000000 1.000000
vn 0.000000 -0.000000 1.000000
vn 0.000000 -0.000000 1.000000
vn 0.000000 -0.000000 1.000000
vn 0.000000 -0.000000 1.000000
vn 0.000000 -0.000000 1.000000
vn 0.000000 -0.000000 1.000000
vn 0.000000 -0.000000 1.000000
vn 0.000000 -0.000000 1.000000
vn 0.000000 -0.000000 1.000000
vn 0.000000 -0.000000 1.000000
vn 0.000000 -0.000000 1.000000
vn 0.000000 -0.000000 1.000000
vn 0.000000 -0.000000 1.000000
vn 0.000000 -0.000000 1.000000
vn 0.000000 -0.000000 1.000000
vn 0.000000 -0.000000 1.000000
vn 0.000000 -0.000000 1.000000
vn 0.000000 -0.000000 1.000000
vn 0.000000 -0.000000 1.000000
vn 0.000000 -0.000000 1.000000
vn 0.000000 -0.000000 1.000000
vn 0.000000 -0.000000 1.000000
vn 0.000000 -0.000000 1.000000
vn 0.000000 -0.000000 1.000000
vn 0.000000 -0.000000 1.000000
vn 0.000000 -0.000000 1.000000
vn 0.000000 -0.000000 1.000000
vn 0.000000 -0.000000 1.000000
vn 0.000000 -0.000000 1.000000
s off
g polySurface232 wall_clock1:IKea_aluminium_clock
usemtl lambert7SG
f 1/1/1 2/2/2 3/3/3 4/4/4
f 5/5/5 1/6/6 4/7/7 6/8/8
f 7/9/9 5/10/10 6/11/11 8/12/12
f 9/13/13 7/14/14 8/15/15 10/16/16
f 11/17/17 9/18/18 10/19/19 12/20/20
f 13/21/21 11/22/22 12/23/23 14/24/24
f 15/25/25 13/26/26 14/27/27 16/28/28
f 17/29/29 15/30/30 16/31/31 18/32/32
f 19/33/33 17/34/34 18/35/35 20/36/36
f 21/37/37 19/38/38 20/39/39 22/40/40
f 23/41/41 21/42/42 22/43/43 24/44/44
f 25/45/45 23/46/46 24/47/47 26/48/48
f 27/49/49 25/50/50 26/51/51 28/52/52
f 27/53/53 28/54/54 29/55/55
f 27/53/56 29/55/57 30/56/58
f 27/53/59 30/56/60 31/57/61
f 32/58/62 27/59/63 31/60/64 33/61/65
f 34/62/66 32/63/67 33/64/68 35/65/69
f 36/66/70 34/67/71 35/68/72 37/69/73
f 38/70/74 36/71/75 37/72/76 39/73/77
f 40/74/78 38/75/79 39/76/80 41/77/81
f 42/78/82 40/79/83 41/80/84 43/81/85
f 44/82/86 42/83/87 43/84/88 45/85/89
f 46/86/90 44/87/91 45/88/92 47/89/93
f 48/90/94 46/91/95 47/92/96 49/93/97
f 50/94/98 48/95/99 49/96/100 51/97/101
f 52/98/102 50/99/103 51/100/104 53/101/105
f 54/102/106 52/103/107 53/104/108 55/105/109
f 56/106/110 54/107/111 55/108/112 57/109/113
f 58/110/114 56/111/115 57/112/116 59/113/117
f 60/114/118 58/115/119 59/116/120 61/117/121
f 62/118/122 60/119/123 61/120/124 63/121/125
f 64/122/126 62/123/127 63/124/128 65/125/129
f 2/126/130 64/127/131 65/128/132 3/129/133
f 65/130/134 63/131/135 61/132/136 59/133/137
f 53/134/138 51/135/139 49/136/140 47/137/141
f 53/138/142 47/139/143 45/140/144 43/141/145
f 53/142/146 43/143/147 41/144/148 39/145/149
f 55/146/150 53/147/151 39/148/152 57/149/153
f 59/150/154 57/151/155 39/152/156 65/153/157
f 3/154/158 65/155/159 39/156/160 4/157/161
f 6/158/162 4/159/163 39/160/164 8/161/165
f 10/162/166 8/163/167 39/164/168 12/165/169
f 14/166/170 12/167/171 39/168/172 16/169/173
f 18/170/174 16/171/175 39/172/176 20/173/177
f 20/174/178 39/175/179 37/176/180 22/177/181
f 22/178/182 37/179/183 35/180/184 33/181/185
f 24/182/186 22/183/187 33/184/188 31/185/189
f 26/186/190 24/187/191 31/188/192 28/189/193
f 29/55/194 28/190/195 31/191/196 30/56/197
f 48/192/198 50/193/199 52/194/200 46/195/201
f 44/196/202 46/197/203 52/198/204 42/199/205
f 40/200/206 42/201/207 52/202/208 38/203/209
f 38/204/210 52/205/211 54/206/212 56/207/213
f 38/208/214 56/209/215 58/210/216 64/211/217
f 60/212/218 62/213/219 64/214/220 58/215/221
f 38/216/222 64/217/223 2/218/224 1/219/225
f 38/220/226 1/221/227 5/222/228 7/223/229
f 38/224/230 7/225/231 9/226/232 11/227/233
f 38/228/234 11/229/235 13/230/236 15/231/237
f 38/232/238 15/233/239 17/234/240 19/235/241
f 36/236/242 38/237/243 19/238/244 21/239/245
f 34/240/246 36/241/247 21/242/248 32/243/249
f 32/244/250 21/245/251 23/246/252 27/247/253
f 27/248/254 23/249/255 25/250/256
